<?xml version="1.0" standalone="no"?>
<!DOCTYPE svg PUBLIC "-//W3C//DTD SVG 20010904//EN"
 "http://www.w3.org/TR/2001/REC-SVG-20010904/DTD/svg10.dtd">
<svg version="1.0" xmlns="http://www.w3.org/2000/svg"
 width="90.000000pt" height="90.000000pt" viewBox="0 0 900.000000 900.000000"
 preserveAspectRatio="xMidYMid meet">

<g transform="translate(0.000000,900.000000) scale(0.100000,-0.100000)"
fill="#000000" stroke="none">
<path d="M4825 6601 c156 -28 307 -40 291 -24 -8 8 -104 18 -256 27 -69 4 -75
4 -35 -3z"/>
<path d="M4733 6533 c-6 -4 21 -9 60 -10 40 -1 92 -6 117 -12 55 -12 197 -26
190 -18 -3 3 -18 7 -35 10 -16 2 -37 6 -45 10 -8 3 -51 8 -95 12 -44 3 -102 8
-130 11 -27 3 -55 1 -62 -3z"/>
<path d="M4728 6449 c8 -7 201 -32 272 -35 25 -1 53 -5 63 -9 22 -9 37 3 18
14 -7 4 -58 11 -114 15 -56 4 -134 11 -174 14 -40 4 -69 4 -65 1z"/>
<path d="M4716 6381 c16 -18 354 -55 354 -39 0 5 -3 8 -7 8 -36 2 -296 30
-323 36 -26 5 -32 4 -24 -5z"/>
<path d="M2279 6356 c-2 -3 -43 -10 -89 -15 -94 -12 -330 -68 -344 -82 -6 -5
-17 -9 -26 -9 -15 0 -73 -22 -185 -68 -289 -121 -625 -365 -811 -589 -93 -112
-199 -259 -248 -343 -38 -65 -156 -306 -156 -319 0 -6 -4 -19 -10 -29 -35 -63
-107 -336 -125 -473 -3 -25 -8 -59 -12 -75 -3 -16 -5 -121 -5 -234 -1 -241 23
-429 78 -615 35 -117 58 -191 65 -200 3 -5 12 -28 19 -50 29 -91 156 -334 229
-435 109 -152 141 -191 266 -316 318 -319 755 -548 1205 -633 241 -45 604 -44
825 4 280 60 503 143 740 277 53 30 215 140 251 169 280 236 453 446 598 729
179 347 257 714 242 1125 -7 203 -22 311 -83 588 -6 30 -9 32 -127 74 -38 13
-118 49 -179 79 -162 80 -257 155 -371 294 -77 95 -93 119 -139 208 -84 160
-125 318 -129 492 l-3 106 -145 71 c-189 94 -213 104 -372 156 -274 91 -440
117 -743 117 -116 0 -214 -2 -216 -4z m-111 -1631 c153 -36 286 -144 362 -295
12 -25 26 -53 31 -62 19 -39 39 -155 39 -232 0 -158 -54 -292 -159 -396 -118
-116 -263 -174 -441 -174 -164 0 -286 50 -401 166 -224 227 -237 598 -29 816
146 153 391 226 598 177z m967 -7 c66 -24 135 -96 135 -140 0 -14 -8 -18 -35
-18 -27 0 -46 10 -85 45 -44 39 -57 45 -96 45 -120 0 -195 -95 -165 -208 16
-56 61 -96 176 -154 158 -79 228 -130 273 -198 96 -143 75 -301 -53 -419 -159
-145 -358 -144 -494 4 -39 43 -91 134 -91 162 0 19 47 45 68 39 11 -4 26 -27
37 -58 10 -29 36 -71 58 -95 52 -56 109 -77 191 -71 189 16 302 211 219 377
-30 60 -121 136 -191 160 -106 37 -229 126 -274 199 -29 48 -29 130 1 194 60
124 198 182 326 136z m-1897 -10 c9 -9 12 -124 12 -458 0 -476 -4 -520 -51
-597 -62 -100 -195 -112 -306 -27 -35 27 -73 90 -73 122 0 56 71 44 90 -14 31
-92 182 -105 228 -20 18 33 22 162 22 733 0 206 2 244 16 257 18 19 45 21 62
4z m2353 -15 c6 -16 9 -122 7 -275 l-3 -248 223 0 222 0 0 256 c0 157 4 263
10 275 14 25 56 25 70 -1 11 -21 15 -1065 4 -1094 -10 -27 -55 -32 -74 -8 -15
18 -17 52 -19 249 -1 125 -3 228 -4 230 -2 1 -97 3 -212 4 l-210 1 -6 -43 c-4
-24 -4 -128 -1 -232 4 -171 3 -189 -13 -207 -22 -24 -48 -26 -69 -4 -14 14
-16 76 -16 557 1 368 4 545 12 554 6 7 24 13 39 13 23 0 32 -6 40 -27z"/>
<path d="M1881 4635 c-224 -57 -361 -234 -361 -467 0 -102 14 -167 57 -256 78
-166 231 -262 418 -262 206 0 375 100 458 270 133 270 25 579 -239 690 -69 29
-92 34 -179 36 -62 2 -121 -2 -154 -11z"/>
<path d="M4895 5915 l-30 -14 30 6 c17 3 39 10 50 14 l20 8 -20 0 c-11 0 -33
-6 -50 -14z"/>
<path d="M4780 5815 c-7 -9 -10 -18 -7 -21 3 -3 10 4 17 15 13 25 8 27 -10 6z"/>
<path d="M8325 4690 c-3 -6 5 -10 19 -10 14 0 28 5 31 10 3 6 -5 10 -19 10
-14 0 -28 -4 -31 -10z"/>
<path d="M8436 4691 c5 -5 27 -11 49 -14 l40 -6 -35 14 c-41 16 -69 19 -54 6z"/>
<path d="M5435 4670 c4 -6 11 -8 16 -5 14 9 11 15 -7 15 -8 0 -12 -5 -9 -10z"/>
<path d="M5920 4670 c0 -5 5 -10 10 -10 6 0 10 5 10 10 0 6 -4 10 -10 10 -5 0
-10 -4 -10 -10z"/>
<path d="M5961 4659 c-7 -12 -10 -23 -8 -26 3 -3 11 5 17 17 15 28 8 35 -9 9z"/>
<path d="M6640 4670 c0 -5 4 -10 9 -10 6 0 13 5 16 10 3 6 -1 10 -9 10 -9 0
-16 -4 -16 -10z"/>
<path d="M7366 4667 c3 -10 9 -15 12 -12 3 3 0 11 -7 18 -10 9 -11 8 -5 -6z"/>
<path d="M7680 4669 c0 -5 5 -7 10 -4 6 3 10 8 10 11 0 2 -4 4 -10 4 -5 0 -10
-5 -10 -11z"/>
<path d="M7745 4670 c4 -6 11 -8 16 -5 14 9 11 15 -7 15 -8 0 -12 -5 -9 -10z"/>
<path d="M8263 4666 c-31 -15 -29 -28 2 -14 14 6 25 15 25 20 0 4 -1 7 -2 7
-2 -1 -13 -6 -25 -13z"/>
<path d="M5911 4634 c0 -11 3 -14 6 -6 3 7 2 16 -1 19 -3 4 -6 -2 -5 -13z"/>
<path d="M5991 4634 c0 -11 3 -14 6 -6 3 7 2 16 -1 19 -3 4 -6 -2 -5 -13z"/>
<path d="M8420 4640 c0 -5 5 -10 11 -10 5 0 7 5 4 10 -3 6 -8 10 -11 10 -2 0
-4 -4 -4 -10z"/>
<path d="M8470 4639 c0 -5 5 -7 10 -4 6 3 10 8 10 11 0 2 -4 4 -10 4 -5 0 -10
-5 -10 -11z"/>
<path d="M5225 4630 c-3 -5 -1 -10 4 -10 6 0 11 5 11 10 0 6 -2 10 -4 10 -3 0
-8 -4 -11 -10z"/>
<path d="M5275 4630 c-3 -5 -1 -10 4 -10 6 0 11 5 11 10 0 6 -2 10 -4 10 -3 0
-8 -4 -11 -10z"/>
<path d="M7280 4630 c0 -5 5 -10 11 -10 5 0 7 5 4 10 -3 6 -8 10 -11 10 -2 0
-4 -4 -4 -10z"/>
<path d="M7320 4630 c0 -5 5 -10 10 -10 6 0 10 5 10 10 0 6 -4 10 -10 10 -5 0
-10 -4 -10 -10z"/>
<path d="M7760 4630 c0 -13 18 -22 24 -11 3 5 -1 11 -9 15 -8 3 -15 1 -15 -4z"/>
<path d="M8265 4630 c-3 -5 -1 -10 4 -10 6 0 11 5 11 10 0 6 -2 10 -4 10 -3 0
-8 -4 -11 -10z"/>
<path d="M8500 4625 c0 -8 2 -15 4 -15 2 0 6 7 10 15 3 8 1 15 -4 15 -6 0 -10
-7 -10 -15z"/>
<path d="M5440 4619 c0 -5 5 -7 10 -4 6 3 10 8 10 11 0 2 -4 4 -10 4 -5 0 -10
-5 -10 -11z"/>
<path d="M7660 4611 c0 -5 7 -11 14 -14 10 -4 13 -1 9 9 -6 15 -23 19 -23 5z"/>
<path d="M8340 4610 c0 -5 5 -10 11 -10 5 0 7 5 4 10 -3 6 -8 10 -11 10 -2 0
-4 -4 -4 -10z"/>
<path d="M5890 4591 c0 -25 6 -27 13 -6 4 8 2 17 -3 20 -6 4 -10 -3 -10 -14z"/>
<path d="M5928 4603 c7 -3 16 -2 19 1 4 3 -2 6 -13 5 -11 0 -14 -3 -6 -6z"/>
<path d="M8208 4583 c5 -21 7 -23 10 -9 2 10 0 22 -6 28 -6 6 -7 0 -4 -19z"/>
<path d="M8283 4595 c-9 -24 1 -27 20 -5 14 17 15 20 2 20 -9 0 -18 -7 -22
-15z"/>
<path d="M8530 4600 c-13 -8 -13 -10 2 -10 9 0 20 5 23 10 8 13 -5 13 -25 0z"/>
<path d="M4958 4593 c-155 -5 -156 -23 -2 -23 89 0 119 3 130 15 12 11 12 14
2 13 -7 -1 -66 -4 -130 -5z"/>
<path d="M7326 4585 c4 -8 8 -15 10 -15 2 0 4 7 4 15 0 8 -4 15 -10 15 -5 0
-7 -7 -4 -15z"/>
<path d="M7703 4573 c-1 -19 1 -22 8 -12 11 17 12 39 2 39 -5 0 -9 -12 -10
-27z"/>
<path d="M8377 4590 c-82 -11 -82 -20 1 -19 58 1 78 -3 104 -21 32 -22 32 -21
-5 14 -21 20 -39 35 -40 35 -1 -1 -28 -5 -60 -9z"/>
<path d="M5110 4580 c0 -5 5 -10 11 -10 5 0 7 5 4 10 -3 6 -8 10 -11 10 -2 0
-4 -4 -4 -10z"/>
<path d="M5245 4580 c3 -6 52 -10 111 -10 63 0 104 4 104 10 0 6 -44 10 -111
10 -71 0 -108 -4 -104 -10z"/>
<path d="M8593 4552 c-1 -22 0 -24 9 -8 6 10 6 22 2 26 -5 5 -10 -3 -11 -18z"/>
<path d="M5996 4553 c-6 -14 -5 -15 5 -6 7 7 10 15 7 18 -3 3 -9 -2 -12 -12z"/>
<path d="M7579 4543 c-13 -16 -12 -17 4 -4 9 7 17 15 17 17 0 8 -8 3 -21 -13z"/>
<path d="M8240 4549 c0 -5 5 -7 10 -4 6 3 10 8 10 11 0 2 -4 4 -10 4 -5 0 -10
-5 -10 -11z"/>
<path d="M8160 4540 c0 -5 5 -10 11 -10 5 0 7 5 4 10 -3 6 -8 10 -11 10 -2 0
-4 -4 -4 -10z"/>
<path d="M8540 4525 c0 -9 6 -12 15 -9 8 4 12 10 9 15 -8 14 -24 10 -24 -6z"/>
<path d="M5100 4443 l5 -88 3 80 c2 48 8 82 15 87 8 5 5 8 -8 8 -19 0 -20 -5
-15 -87z"/>
<path d="M5887 4504 c19 -29 23 -30 23 -5 0 10 -9 21 -20 24 -18 5 -18 4 -3
-19z"/>
<path d="M8210 4520 c-9 -6 -10 -10 -3 -10 6 0 15 5 18 10 8 12 4 12 -15 0z"/>
<path d="M8236 4507 c-7 -27 -5 -28 16 -6 13 14 14 19 3 23 -7 2 -15 -4 -19
-17z"/>
<path d="M6030 4480 c0 -16 4 -30 8 -30 5 0 7 14 4 30 -2 17 -6 30 -8 30 -2 0
-4 -13 -4 -30z"/>
<path d="M6600 4494 c0 -8 5 -12 10 -9 6 4 8 11 5 16 -9 14 -15 11 -15 -7z"/>
<path d="M5856 4491 c-4 -7 -5 -15 -2 -18 9 -9 19 4 14 18 -4 11 -6 11 -12 0z"/>
<path d="M8148 4493 c-2 -5 -1 -26 3 -48 l6 -40 2 48 c1 44 -3 57 -11 40z"/>
<path d="M8530 4490 c0 -5 9 -10 19 -10 11 0 23 5 26 10 4 6 -5 10 -19 10 -14
0 -26 -4 -26 -10z"/>
<path d="M5996 4473 c-6 -14 -5 -15 5 -6 7 7 10 15 7 18 -3 3 -9 -2 -12 -12z"/>
<path d="M7600 4479 c0 -5 5 -7 10 -4 6 3 10 8 10 11 0 2 -4 4 -10 4 -5 0 -10
-5 -10 -11z"/>
<path d="M7627 4473 c-9 -9 -9 -43 1 -43 4 0 12 11 19 25 9 19 8 25 -1 25 -7
0 -16 -3 -19 -7z"/>
<path d="M7550 4460 c0 -5 5 -10 10 -10 6 0 10 5 10 10 0 6 -4 10 -10 10 -5 0
-10 -4 -10 -10z"/>
<path d="M7314 4453 c4 -7 11 -32 15 -55 l9 -43 1 41 c1 28 -5 46 -16 55 -11
9 -14 10 -9 2z"/>
<path d="M5915 4439 c-9 -14 -2 -20 14 -10 8 6 9 11 3 15 -6 3 -14 1 -17 -5z"/>
<path d="M6595 4440 c-3 -5 -2 -10 4 -10 5 0 13 5 16 10 3 6 2 10 -4 10 -5 0
-13 -4 -16 -10z"/>
<path d="M5185 4430 c3 -5 8 -10 11 -10 2 0 4 5 4 10 0 6 -5 10 -11 10 -5 0
-7 -4 -4 -10z"/>
<path d="M7524 4416 c-9 -20 -8 -23 7 -19 19 5 33 43 16 43 -7 0 -17 -11 -23
-24z"/>
<path d="M7487 4423 c-4 -3 -7 -11 -7 -17 0 -6 5 -5 12 2 6 6 9 14 7 17 -3 3
-9 2 -12 -2z"/>
<path d="M8240 4423 c0 -7 4 -14 10 -18 5 -3 7 -12 3 -20 -3 -8 -3 -15 0 -15
13 0 13 28 1 45 -8 10 -14 14 -14 8z"/>
<path d="M5140 4400 c0 -19 3 -21 12 -12 9 9 9 15 0 24 -9 9 -12 7 -12 -12z"/>
<path d="M6020 4405 c0 -9 7 -18 15 -22 23 -8 24 0 3 20 -15 14 -18 15 -18 2z"/>
<path d="M7360 4405 c0 -8 5 -15 10 -15 6 0 10 7 10 15 0 8 -4 15 -10 15 -5 0
-10 -7 -10 -15z"/>
<path d="M7570 4411 c0 -5 7 -11 14 -14 10 -4 13 -1 9 9 -6 15 -23 19 -23 5z"/>
<path d="M5811 4369 c-7 -16 -10 -33 -7 -36 3 -4 6 1 6 10 0 10 4 17 9 17 5 0
11 9 14 20 8 31 -6 24 -22 -11z"/>
<path d="M6595 4391 c-3 -5 -1 -12 5 -16 5 -3 10 1 10 9 0 18 -6 21 -15 7z"/>
<path d="M5940 4380 c0 -5 9 -10 20 -10 11 0 20 5 20 10 0 6 -9 10 -20 10 -11
0 -20 -4 -20 -10z"/>
<path d="M5184 4369 c-3 -6 -1 -16 5 -22 8 -8 11 -5 11 11 0 24 -5 28 -16 11z"/>
<path d="M7350 4370 c0 -5 5 -10 11 -10 5 0 7 5 4 10 -3 6 -8 10 -11 10 -2 0
-4 -4 -4 -10z"/>
<path d="M5850 4360 c0 -5 5 -10 11 -10 5 0 7 5 4 10 -3 6 -8 10 -11 10 -2 0
-4 -4 -4 -10z"/>
<path d="M5908 4345 c-25 -34 -22 -53 3 -21 11 14 19 30 17 35 -2 5 -11 -1
-20 -14z"/>
<path d="M5996 4362 c-3 -5 -2 -22 3 -38 l8 -29 5 33 c4 31 -5 52 -16 34z"/>
<path d="M8275 4360 c-3 -5 -1 -10 4 -10 6 0 11 5 11 10 0 6 -2 10 -4 10 -3 0
-8 -4 -11 -10z"/>
<path d="M6045 4339 c-4 -12 -2 -26 5 -33 10 -8 11 -7 6 8 -3 10 -1 25 5 32 8
9 8 14 1 14 -6 0 -14 -9 -17 -21z"/>
<path d="M8192 4347 c-8 -10 -6 -13 9 -13 20 0 25 11 10 20 -5 3 -13 0 -19 -7z"/>
<path d="M5101 4334 c0 -11 3 -14 6 -6 3 7 2 16 -1 19 -3 4 -6 -2 -5 -13z"/>
<path d="M8320 4330 c0 -5 5 -10 11 -10 5 0 7 5 4 10 -3 6 -8 10 -11 10 -2 0
-4 -4 -4 -10z"/>
<path d="M5185 4317 c-4 -10 -5 -21 -1 -24 10 -10 18 4 13 24 -4 17 -4 17 -12
0z"/>
<path d="M5816 4314 c-9 -24 -7 -27 9 -10 17 17 19 26 6 26 -5 0 -12 -7 -15
-16z"/>
<path d="M7346 4314 c-4 -9 -4 -19 -1 -22 2 -3 7 3 11 12 4 9 4 19 1 22 -2 3
-7 -3 -11 -12z"/>
<path d="M8240 4320 c0 -5 5 -10 11 -10 5 0 7 5 4 10 -3 6 -8 10 -11 10 -2 0
-4 -4 -4 -10z"/>
<path d="M5120 4312 c0 -5 2 -11 5 -14 3 -3 8 -43 10 -89 3 -51 10 -86 17 -91
21 -13 30 -9 15 7 -13 13 -32 122 -27 150 5 22 -1 45 -10 45 -5 0 -10 -4 -10
-8z"/>
<path d="M6632 4300 c0 -14 2 -19 5 -12 2 6 2 18 0 25 -3 6 -5 1 -5 -13z"/>
<path d="M7526 4304 c-5 -14 -4 -15 9 -4 17 14 19 20 6 20 -5 0 -12 -7 -15
-16z"/>
<path d="M6586 4301 c-4 -7 -5 -15 -2 -18 9 -9 19 4 14 18 -4 11 -6 11 -12 0z"/>
<path d="M5780 4279 c0 -11 5 -17 10 -14 6 3 10 -3 10 -14 0 -12 4 -21 9 -21
5 0 11 -6 14 -12 2 -7 2 0 -1 16 -2 15 -13 37 -23 47 -19 19 -19 19 -19 -2z"/>
<path d="M5841 4284 c0 -11 3 -14 6 -6 3 7 2 16 -1 19 -3 4 -6 -2 -5 -13z"/>
<path d="M5104 4130 c0 -91 2 -128 3 -82 2 45 2 119 0 165 -1 45 -3 8 -3 -83z"/>
<path d="M5875 4281 c3 -6 -2 -14 -10 -19 -10 -5 -13 -15 -9 -26 6 -15 9 -13
20 14 17 39 17 40 3 40 -5 0 -8 -4 -4 -9z"/>
<path d="M6010 4286 c0 -2 9 -6 20 -9 11 -3 18 -1 14 4 -5 9 -34 13 -34 5z"/>
<path d="M8225 4280 c-3 -5 -1 -10 4 -10 6 0 11 5 11 10 0 6 -2 10 -4 10 -3 0
-8 -4 -11 -10z"/>
<path d="M8438 4264 c12 -8 28 -13 35 -11 7 3 5 6 -5 6 -10 1 -18 6 -18 11 0
6 -8 10 -17 10 -14 0 -13 -3 5 -16z"/>
<path d="M6021 4264 c-2 -28 22 -74 39 -74 14 0 17 7 14 32 -2 17 -7 34 -10
37 -3 3 -5 -3 -4 -14 5 -45 -2 -48 -19 -10 -11 22 -20 35 -20 29z"/>
<path d="M7441 4244 c0 -11 3 -14 6 -6 3 7 2 16 -1 19 -3 4 -6 -2 -5 -13z"/>
<path d="M8250 4250 c0 -6 7 -13 15 -17 24 -9 27 1 5 15 -13 8 -20 8 -20 2z"/>
<path d="M5761 4234 c0 -11 3 -14 6 -6 3 7 2 16 -1 19 -3 4 -6 -2 -5 -13z"/>
<path d="M7320 4240 c0 -5 5 -10 10 -10 6 0 10 5 10 10 0 6 -4 10 -10 10 -5 0
-10 -4 -10 -10z"/>
<path d="M8317 4239 c7 -7 15 -10 18 -7 3 3 -2 9 -12 12 -14 6 -15 5 -6 -5z"/>
<path d="M8420 4240 c0 -5 5 -10 11 -10 5 0 7 5 4 10 -3 6 -8 10 -11 10 -2 0
-4 -4 -4 -10z"/>
<path d="M8475 4230 c-3 -5 1 -10 10 -10 9 0 13 5 10 10 -3 6 -8 10 -10 10 -2
0 -7 -4 -10 -10z"/>
<path d="M8380 4220 c0 -5 5 -10 10 -10 6 0 10 5 10 10 0 6 -4 10 -10 10 -5 0
-10 -4 -10 -10z"/>
<path d="M8526 4221 c-3 -5 3 -11 15 -14 16 -4 18 -3 8 9 -13 16 -16 17 -23 5z"/>
<path d="M6140 4210 c0 -5 5 -10 11 -10 5 0 7 5 4 10 -3 6 -8 10 -11 10 -2 0
-4 -4 -4 -10z"/>
<path d="M7405 4210 c-3 -5 -1 -10 4 -10 6 0 11 5 11 10 0 6 -2 10 -4 10 -3 0
-8 -4 -11 -10z"/>
<path d="M5847 4203 c-4 -3 -7 -13 -7 -22 1 -13 3 -13 11 2 11 19 8 33 -4 20z"/>
<path d="M6600 4185 c0 -8 2 -15 4 -15 2 0 6 7 10 15 3 8 1 15 -4 15 -6 0 -10
-7 -10 -15z"/>
<path d="M8338 4193 c7 -3 16 -2 19 1 4 3 -2 6 -13 5 -11 0 -14 -3 -6 -6z"/>
<path d="M8476 4181 c-4 -7 -5 -15 -2 -18 9 -9 19 4 14 18 -4 11 -6 11 -12 0z"/>
<path d="M8566 4174 c-7 -18 0 -34 16 -34 6 0 5 7 -3 17 -13 15 -12 16 9 11
19 -5 21 -4 11 8 -15 18 -25 18 -33 -2z"/>
<path d="M8408 4163 c7 -3 16 -2 19 1 4 3 -2 6 -13 5 -11 0 -14 -3 -6 -6z"/>
<path d="M6600 4135 c0 -8 4 -15 10 -15 5 0 7 7 4 15 -4 8 -8 15 -10 15 -2 0
-4 -7 -4 -15z"/>
<path d="M6057 4121 c-3 -14 0 -21 9 -21 16 0 18 9 5 28 -6 10 -10 9 -14 -7z"/>
<path d="M8637 4133 c-4 -3 -7 -11 -7 -17 0 -6 5 -5 12 2 6 6 9 14 7 17 -3 3
-9 2 -12 -2z"/>
<path d="M8487 4119 c7 -7 15 -10 18 -7 3 3 -2 9 -12 12 -14 6 -15 5 -6 -5z"/>
<path d="M5837 4104 c3 -9 20 -14 47 -13 44 1 42 2 -16 17 -30 8 -36 7 -31 -4z"/>
<path d="M7430 4109 c0 -5 5 -7 10 -4 6 3 10 8 10 11 0 2 -4 4 -10 4 -5 0 -10
-5 -10 -11z"/>
<path d="M7496 4112 c-2 -4 4 -14 15 -20 19 -12 19 -11 9 8 -12 22 -16 24 -24
12z"/>
<path d="M8550 4100 c0 -6 7 -10 15 -10 8 0 15 2 15 4 0 2 -7 6 -15 10 -8 3
-15 1 -15 -4z"/>
<path d="M5130 4074 c0 -8 5 -12 10 -9 6 3 10 10 10 16 0 5 -4 9 -10 9 -5 0
-10 -7 -10 -16z"/>
<path d="M6600 4060 c0 -11 5 -20 10 -20 6 0 10 9 10 20 0 11 -4 20 -10 20 -5
0 -10 -9 -10 -20z"/>
<path d="M8644 4055 c-19 -14 -18 -14 4 -15 13 0 22 6 22 15 0 19 -1 19 -26 0z"/>
<path d="M5160 4050 c0 -5 5 -10 11 -10 5 0 7 5 4 10 -3 6 -8 10 -11 10 -2 0
-4 -4 -4 -10z"/>
<path d="M5820 4040 l-35 -7 32 -2 c17 0 35 4 38 9 3 6 5 9 3 9 -2 -1 -19 -5
-38 -9z"/>
<path d="M7540 4040 c8 -5 24 -10 34 -10 26 0 18 6 -19 14 -22 5 -26 4 -15 -4z"/>
<path d="M8690 4036 c0 -9 5 -16 10 -16 6 0 10 4 10 9 0 6 -4 13 -10 16 -5 3
-10 -1 -10 -9z"/>
<path d="M5985 4030 c-3 -5 -1 -10 4 -10 6 0 11 5 11 10 0 6 -2 10 -4 10 -3 0
-8 -4 -11 -10z"/>
<path d="M6088 4033 c7 -3 16 -2 19 1 4 3 -2 6 -13 5 -11 0 -14 -3 -6 -6z"/>
<path d="M7340 4030 c0 -5 5 -10 10 -10 6 0 10 5 10 10 0 6 -4 10 -10 10 -5 0
-10 -4 -10 -10z"/>
<path d="M7506 4032 c-3 -6 -1 -14 5 -17 14 -9 20 -2 10 14 -6 8 -11 9 -15 3z"/>
<path d="M5915 4020 c-18 -8 -17 -9 8 -9 15 -1 27 4 27 9 0 12 -8 12 -35 0z"/>
<path d="M6583 3985 c0 -27 2 -38 4 -22 2 15 2 37 0 50 -2 12 -4 0 -4 -28z"/>
<path d="M8590 4020 c0 -5 5 -10 10 -10 6 0 10 5 10 10 0 6 -4 10 -10 10 -5 0
-10 -4 -10 -10z"/>
<path d="M8660 4020 c0 -5 5 -10 11 -10 5 0 7 5 4 10 -3 6 -8 10 -11 10 -2 0
-4 -4 -4 -10z"/>
<path d="M5848 4013 c6 -2 18 -2 25 0 6 3 1 5 -13 5 -14 0 -19 -2 -12 -5z"/>
<path d="M6198 4013 c-10 -2 -18 -8 -18 -12 0 -12 43 -6 48 7 4 12 0 13 -30 5z"/>
<path d="M8630 4011 c0 -5 -3 -18 -6 -28 -5 -15 -4 -15 5 -3 8 12 11 12 17 -3
7 -19 29 -23 39 -7 3 6 -1 7 -9 4 -11 -4 -19 2 -26 20 -9 26 -20 35 -20 17z"/>
<path d="M5753 4000 c3 -12 29 -16 137 -18 74 -1 131 0 128 3 -3 3 -61 6 -129
7 -77 0 -127 5 -132 12 -6 7 -7 6 -4 -4z"/>
<path d="M6127 4004 c-8 -8 1 -24 14 -24 5 0 9 7 9 15 0 15 -12 20 -23 9z"/>
<path d="M7640 4001 c0 -5 5 -13 10 -16 6 -3 10 -2 10 4 0 5 -4 13 -10 16 -5
3 -10 2 -10 -4z"/>
<path d="M7531 3995 c0 -22 25 -44 40 -34 12 7 12 9 0 9 -8 0 -20 8 -27 18 -7
9 -13 13 -13 7z"/>
<path d="M8712 3980 c0 -14 2 -19 5 -12 2 6 2 18 0 25 -3 6 -5 1 -5 -13z"/>
<path d="M5665 3958 c-3 -7 -1 -26 4 -43 7 -26 10 -27 16 -11 5 11 3 21 -5 26
-7 4 -10 15 -7 24 4 9 4 16 1 16 -2 0 -7 -6 -9 -12z"/>
<path d="M6195 3960 c-3 -6 1 -7 9 -4 18 7 21 14 7 14 -6 0 -13 -4 -16 -10z"/>
<path d="M7630 3965 c0 -7 30 -13 34 -7 3 4 -4 9 -15 9 -10 1 -19 0 -19 -2z"/>
<path d="M5101 3883 c0 -46 2 -83 7 -83 4 0 6 26 4 57 -5 101 -9 111 -11 26z"/>
<path d="M5160 3950 c0 -5 5 -10 10 -10 6 0 10 5 10 10 0 6 -4 10 -10 10 -5 0
-10 -4 -10 -10z"/>
<path d="M6230 3949 c0 -5 5 -7 10 -4 6 3 10 8 10 11 0 2 -4 4 -10 4 -5 0 -10
-5 -10 -11z"/>
<path d="M7315 3950 c3 -5 8 -10 11 -10 2 0 4 5 4 10 0 6 -5 10 -11 10 -5 0
-7 -4 -4 -10z"/>
<path d="M7342 3922 c-1 -30 2 -44 13 -48 8 -4 15 -14 16 -23 0 -12 2 -13 6
-2 3 8 -1 19 -10 26 -9 6 -17 29 -20 51 l-4 39 -1 -43z"/>
<path d="M7570 3931 c0 -5 5 -13 10 -16 6 -3 10 -2 10 4 0 5 -4 13 -10 16 -5
3 -10 2 -10 -4z"/>
<path d="M5750 3919 c0 -5 5 -7 10 -4 6 3 10 8 10 11 0 2 -4 4 -10 4 -5 0 -10
-5 -10 -11z"/>
<path d="M6145 3915 c4 -11 10 -30 12 -42 3 -13 9 -23 13 -23 11 0 0 41 -18
65 l-14 20 7 -20z"/>
<path d="M8148 3913 c7 -3 16 -2 19 1 4 3 -2 6 -13 5 -11 0 -14 -3 -6 -6z"/>
<path d="M6198 3882 c-7 -26 16 -42 35 -23 8 8 7 11 -5 11 -9 0 -18 8 -20 18
-3 14 -5 12 -10 -6z"/>
<path d="M6582 3880 c0 -14 2 -19 5 -12 2 6 2 18 0 25 -3 6 -5 1 -5 -13z"/>
<path d="M7310 3885 c-11 -13 -10 -14 4 -9 9 3 16 10 16 15 0 13 -6 11 -20 -6z"/>
<path d="M8113 3884 c26 -9 47 -21 47 -25 0 -5 5 -9 10 -9 6 0 10 3 10 8 0 13
-36 30 -76 37 -38 5 -38 5 9 -11z"/>
<path d="M5690 3880 c-11 -7 -12 -12 -4 -20 8 -8 13 -6 17 9 3 12 4 21 4 21
-1 0 -9 -5 -17 -10z"/>
<path d="M5150 3869 c0 -5 5 -7 10 -4 6 3 10 8 10 11 0 2 -4 4 -10 4 -5 0 -10
-5 -10 -11z"/>
<path d="M5726 3865 c-3 -8 -1 -15 4 -15 6 0 10 7 10 15 0 8 -2 15 -4 15 -2 0
-6 -7 -10 -15z"/>
<path d="M7645 3870 c3 -5 8 -10 11 -10 2 0 4 5 4 10 0 6 -5 10 -11 10 -5 0
-7 -4 -4 -10z"/>
<path d="M8695 3860 c10 -11 20 -18 23 -16 5 6 -23 36 -34 36 -4 0 1 -9 11
-20z"/>
<path d="M8615 3861 c-3 -5 -1 -12 5 -16 5 -3 10 1 10 9 0 18 -6 21 -15 7z"/>
<path d="M5192 3840 c0 -14 2 -19 5 -12 2 6 2 18 0 25 -3 6 -5 1 -5 -13z"/>
<path d="M5618 3828 c-5 -28 -4 -29 9 -13 15 22 16 32 4 39 -5 3 -11 -8 -13
-26z"/>
<path d="M6660 3850 c0 -5 5 -10 11 -10 5 0 7 5 4 10 -3 6 -8 10 -11 10 -2 0
-4 -4 -4 -10z"/>
<path d="M7620 3851 c0 -10 29 -36 34 -30 1 2 -6 12 -16 22 -10 9 -18 13 -18
8z"/>
<path d="M8076 3843 c-6 -14 -5 -15 5 -6 7 7 10 15 7 18 -3 3 -9 -2 -12 -12z"/>
<path d="M6237 3843 c-4 -3 -7 -13 -7 -20 0 -12 3 -12 15 1 8 8 15 17 15 20 0
8 -15 7 -23 -1z"/>
<path d="M8660 3829 c0 -5 5 -7 10 -4 6 3 10 8 10 11 0 2 -4 4 -10 4 -5 0 -10
-5 -10 -11z"/>
<path d="M6180 3820 c0 -5 5 -10 10 -10 6 0 10 5 10 10 0 6 -4 10 -10 10 -5 0
-10 -4 -10 -10z"/>
<path d="M7320 3815 c0 -8 5 -15 10 -15 6 0 10 7 10 15 0 8 -4 15 -10 15 -5 0
-10 -7 -10 -15z"/>
<path d="M7668 3806 c-9 -21 -7 -29 15 -55 22 -27 25 -28 30 -11 3 12 0 17 -8
14 -17 -7 -39 22 -31 42 5 14 9 14 23 3 15 -13 15 -12 4 9 -15 28 -19 28 -33
-2z"/>
<path d="M8180 3820 c0 -5 5 -10 11 -10 5 0 7 5 4 10 -3 6 -8 10 -11 10 -2 0
-4 -4 -4 -10z"/>
<path d="M8630 3817 c0 -9 0 -20 -1 -24 0 -4 4 -9 10 -11 6 -2 8 6 6 19 -5 27
-15 38 -15 16z"/>
<path d="M5150 3801 c0 -25 6 -27 13 -6 4 8 2 17 -3 20 -6 4 -10 -3 -10 -14z"/>
<path d="M5670 3799 c0 -18 2 -19 15 -9 8 7 15 16 15 21 0 5 -7 9 -15 9 -9 0
-15 -9 -15 -21z"/>
<path d="M6577 3807 c-3 -8 -2 -20 3 -26 5 -9 8 -4 8 13 0 29 -3 32 -11 13z"/>
<path d="M7727 3813 c-4 -3 -7 -11 -7 -17 0 -6 5 -5 12 2 6 6 9 14 7 17 -3 3
-9 2 -12 -2z"/>
<path d="M6270 3800 c0 -5 5 -10 11 -10 5 0 7 5 4 10 -3 6 -8 10 -11 10 -2 0
-4 -4 -4 -10z"/>
<path d="M6630 3805 c0 -5 5 -17 10 -25 5 -8 10 -10 10 -5 0 6 -5 17 -10 25
-5 8 -10 11 -10 5z"/>
<path d="M7365 3776 c0 -37 15 -44 15 -8 0 18 -4 32 -8 32 -4 0 -8 -11 -7 -24z"/>
<path d="M8106 3791 c-12 -5 -15 -10 -9 -14 6 -4 16 0 23 8 14 17 13 17 -14 6z"/>
<path d="M8580 3789 c0 -5 5 -7 10 -4 6 3 10 8 10 11 0 2 -4 4 -10 4 -5 0 -10
-5 -10 -11z"/>
<path d="M6200 3774 c0 -8 5 -12 10 -9 6 3 10 10 10 16 0 5 -4 9 -10 9 -5 0
-10 -7 -10 -16z"/>
<path d="M5192 3760 c0 -14 2 -19 5 -12 2 6 2 18 0 25 -3 6 -5 1 -5 -13z"/>
<path d="M6306 3765 c4 -8 8 -15 10 -15 2 0 4 7 4 15 0 8 -4 15 -10 15 -5 0
-7 -7 -4 -15z"/>
<path d="M6600 3769 c0 -5 5 -7 10 -4 6 3 10 8 10 11 0 2 -4 4 -10 4 -5 0 -10
-5 -10 -11z"/>
<path d="M7790 3771 c0 -5 5 -13 10 -16 6 -3 10 -2 10 4 0 5 -4 13 -10 16 -5
3 -10 2 -10 -4z"/>
<path d="M8660 3771 c0 -6 5 -13 10 -16 6 -3 10 1 10 9 0 9 -4 16 -10 16 -5 0
-10 -4 -10 -9z"/>
<path d="M5101 3703 c0 -40 2 -73 7 -73 4 0 6 24 4 52 -5 89 -9 97 -11 21z"/>
<path d="M5685 3760 c-3 -5 -1 -10 4 -10 6 0 11 5 11 10 0 6 -2 10 -4 10 -3 0
-8 -4 -11 -10z"/>
<path d="M8605 3760 c3 -5 8 -10 11 -10 2 0 4 5 4 10 0 6 -5 10 -11 10 -5 0
-7 -4 -4 -10z"/>
<path d="M6245 3750 c-3 -5 -2 -10 4 -10 5 0 13 5 16 10 3 6 2 10 -4 10 -5 0
-13 -4 -16 -10z"/>
<path d="M7735 3750 c-3 -5 -1 -10 4 -10 6 0 11 5 11 10 0 6 -2 10 -4 10 -3 0
-8 -4 -11 -10z"/>
<path d="M8236 3743 c-6 -14 -5 -15 5 -6 7 7 10 15 7 18 -3 3 -9 -2 -12 -12z"/>
<path d="M8526 3745 c-11 -8 -15 -15 -9 -15 6 0 16 7 23 15 16 19 11 19 -14 0z"/>
<path d="M8570 3745 c-8 -9 -8 -15 -2 -15 12 0 26 19 19 26 -2 2 -10 -2 -17
-11z"/>
<path d="M6210 3740 c0 -5 5 -10 11 -10 5 0 7 5 4 10 -3 6 -8 10 -11 10 -2 0
-4 -4 -4 -10z"/>
<path d="M8200 3736 c0 -9 5 -16 10 -16 6 0 10 4 10 9 0 6 -4 13 -10 16 -5 3
-10 -1 -10 -9z"/>
<path d="M5145 3730 c-3 -5 -1 -10 4 -10 6 0 11 5 11 10 0 6 -2 10 -4 10 -3 0
-8 -4 -11 -10z"/>
<path d="M7328 3728 c7 -7 13 -30 13 -52 2 -33 3 -35 6 -12 6 37 -4 76 -19 76
-9 0 -9 -3 0 -12z"/>
<path d="M8174 3733 c3 -6 -3 -18 -14 -26 -19 -13 -19 -15 -3 -28 14 -12 16
-12 8 0 -5 9 -2 19 10 28 16 11 17 15 5 26 -9 8 -11 8 -6 0z"/>
<path d="M8639 3738 c-5 -18 -6 -38 -1 -34 7 8 12 36 6 36 -2 0 -4 -1 -5 -2z"/>
<path d="M7295 3719 c-4 -6 -5 -12 -2 -15 2 -3 7 2 10 11 7 17 1 20 -8 4z"/>
<path d="M7372 3705 c0 -16 2 -22 5 -12 2 9 2 23 0 30 -3 6 -5 -1 -5 -18z"/>
<path d="M7758 3723 c7 -3 16 -2 19 1 4 3 -2 6 -13 5 -11 0 -14 -3 -6 -6z"/>
<path d="M7832 3708 c7 -15 15 -23 17 -17 2 6 -4 18 -13 27 -15 15 -15 15 -4
-10z"/>
<path d="M8270 3720 c8 -5 20 -10 25 -10 6 0 3 5 -5 10 -8 5 -19 10 -25 10 -5
0 -3 -5 5 -10z"/>
<path d="M8465 3710 c-8 -13 5 -13 25 0 13 8 13 10 -2 10 -9 0 -20 -4 -23 -10z"/>
<path d="M8310 3695 c0 -6 22 -9 52 -7 90 5 96 8 20 13 -44 2 -72 0 -72 -6z"/>
<path d="M5570 3689 c0 -5 5 -7 10 -4 6 3 10 8 10 11 0 2 -4 4 -10 4 -5 0 -10
-5 -10 -11z"/>
<path d="M5626 3683 c-3 -10 -9 -24 -12 -30 -10 -22 10 -14 24 8 9 14 10 25 4
31 -6 6 -12 3 -16 -9z"/>
<path d="M6988 3693 c17 -2 47 -2 65 0 17 2 3 4 -33 4 -36 0 -50 -2 -32 -4z"/>
<path d="M8565 3680 c3 -5 11 -10 16 -10 6 0 7 5 4 10 -3 6 -11 10 -16 10 -6
0 -7 -4 -4 -10z"/>
<path d="M6728 3673 c7 -3 16 -2 19 1 4 3 -2 6 -13 5 -11 0 -14 -3 -6 -6z"/>
<path d="M8481 3658 c0 -15 -6 -30 -11 -33 -16 -10 -1 -25 23 -24 17 1 18 2 5
6 -10 2 -18 8 -18 13 0 18 22 22 46 9 20 -10 27 -10 37 1 10 10 9 12 -5 7 -21
-7 -66 13 -72 33 -2 8 -4 3 -5 -12z"/>
<path d="M8605 3670 c-3 -5 -1 -10 4 -10 6 0 11 5 11 10 0 6 -2 10 -4 10 -3 0
-8 -4 -11 -10z"/>
<path d="M6340 3650 c0 -11 4 -20 9 -20 5 0 7 9 4 20 -3 11 -7 20 -9 20 -2 0
-4 -9 -4 -20z"/>
<path d="M8320 3658 c0 -10 9 -9 35 2 17 8 16 8 -7 7 -16 -1 -28 -5 -28 -9z"/>
<path d="M8440 3660 c0 -5 5 -10 10 -10 6 0 10 5 10 10 0 6 -4 10 -10 10 -5 0
-10 -4 -10 -10z"/>
<path d="M8191 3649 c17 -11 39 -12 39 -1 0 4 -12 8 -27 9 -19 1 -22 -1 -12
-8z"/>
<path d="M5140 3639 c0 -5 5 -7 10 -4 6 3 10 8 10 11 0 2 -4 4 -10 4 -5 0 -10
-5 -10 -11z"/>
<path d="M6886 3641 c-4 -5 14 -9 39 -9 24 1 42 5 39 10 -7 11 -71 10 -78 -1z"/>
<path d="M7750 3640 c0 -5 5 -10 11 -10 5 0 7 5 4 10 -3 6 -8 10 -11 10 -2 0
-4 -4 -4 -10z"/>
<path d="M7785 3640 c3 -5 11 -10 16 -10 6 0 7 5 4 10 -3 6 -11 10 -16 10 -6
0 -7 -4 -4 -10z"/>
<path d="M7841 3638 c-1 -13 -9 -18 -28 -18 -16 0 -35 -5 -43 -10 -10 -7 7
-10 58 -10 49 0 71 3 67 11 -4 6 -13 8 -21 5 -9 -4 -18 3 -24 17 -7 17 -9 18
-9 5z"/>
<path d="M8240 3630 c0 -5 5 -10 10 -10 6 0 10 5 10 10 0 6 -4 10 -10 10 -5 0
-10 -4 -10 -10z"/>
<path d="M8395 3630 c3 -5 8 -10 11 -10 2 0 4 5 4 10 0 6 -5 10 -11 10 -5 0
-7 -4 -4 -10z"/>
<path d="M5543 3608 c-2 -5 21 -8 51 -8 31 0 56 3 56 8 0 9 -100 9 -107 0z"/>
<path d="M6253 3608 c-2 -5 24 -8 58 -8 34 0 59 3 55 7 -9 9 -107 10 -113 1z"/>
<path d="M6605 3609 c-22 -3 77 -7 219 -8 143 0 256 2 252 7 -9 8 -414 10
-471 1z"/>
<path d="M8300 3610 c-24 -8 -23 -8 8 -9 20 -1 31 3 27 9 -3 6 -7 10 -8 9 -1
-1 -13 -5 -27 -9z"/>
<path d="M8370 3611 c0 -10 30 -24 37 -17 3 2 -5 9 -16 16 -12 6 -21 7 -21 1z"/>
<path d="M5143 3603 c15 -2 37 -2 50 0 12 2 0 4 -28 4 -27 0 -38 -2 -22 -4z"/>
<path d="M7293 3603 c9 -2 25 -2 35 0 9 3 1 5 -18 5 -19 0 -27 -2 -17 -5z"/>
</g>
</svg>
