<svg id="svg" version="1.1" xmlns="http://www.w3.org/2000/svg" xmlns:xlink="http://www.w3.org/1999/xlink" width="200" height="200" viewBox="0, 0, 400,400"><g id="svgg"><path id="path0" d="M105.000 117.028 C 81.343 119.292,62.506 127.422,44.185 143.273 C 40.206 146.716,39.550 147.419,34.190 153.991 C 7.117 187.187,3.882 232.410,25.911 269.732 C 44.961 302.008,83.697 321.780,121.007 318.272 C 165.557 314.083,199.969 284.684,210.753 241.600 C 213.925 228.929,213.958 210.048,210.836 195.000 C 209.142 186.837,209.773 187.713,204.200 185.773 C 180.837 177.640,166.430 158.583,166.403 135.776 C 166.401 134.146,166.189 132.671,165.900 132.285 C 165.352 131.553,157.950 127.714,153.200 125.698 C 143.329 121.509,135.390 119.337,123.627 117.606 C 120.552 117.153,107.819 116.758,105.000 117.028 M96.301 190.202 C 116.812 195.038,122.265 225.291,104.690 236.741 C 86.092 248.859,63.852 236.922,63.810 214.800 C 63.779 198.044,79.401 186.217,96.301 190.202 M138.200 190.217 C 140.944 190.932,142.808 192.225,144.262 194.422 C 146.494 197.795,143.726 198.319,140.161 195.200 C 134.128 189.921,125.839 195.641,128.377 203.331 C 129.087 205.482,131.390 207.262,137.468 210.356 C 145.488 214.439,148.313 217.075,150.047 222.097 C 154.075 233.756,140.110 245.340,128.540 239.936 C 122.985 237.340,117.835 227.557,122.296 228.074 C 123.188 228.177,123.593 228.634,124.527 230.585 C 129.277 240.516,140.925 240.588,146.059 230.718 C 149.452 224.196,145.841 217.919,135.927 213.105 C 126.995 208.768,124.182 205.812,124.220 200.800 C 124.265 194.803,128.883 190.119,135.216 189.646 C 135.555 189.621,136.898 189.878,138.200 190.217 M54.800 190.793 C 55.665 191.342,55.450 230.143,54.562 233.767 C 52.714 241.311,46.113 243.594,40.037 238.791 C 37.923 237.121,36.506 234.355,36.988 232.839 C 37.483 231.279,39.777 232.073,40.188 233.946 C 40.887 237.128,45.935 238.734,49.124 236.790 C 51.807 235.154,51.788 235.328,51.794 212.269 C 51.800 192.212,51.825 191.519,52.576 190.969 C 53.481 190.306,53.972 190.268,54.800 190.793 M159.210 191.426 C 159.430 192.004,159.600 197.334,159.600 203.626 L 159.600 214.800 169.800 214.800 L 180.000 214.800 180.000 203.080 C 180.000 190.931,180.070 190.400,181.666 190.400 C 183.136 190.400,183.200 191.452,183.200 215.745 C 183.200 240.930,183.209 240.800,181.433 240.800 C 179.786 240.800,179.618 239.770,179.507 228.976 L 179.400 218.600 169.600 218.600 L 159.800 218.600 159.693 228.967 C 159.623 235.798,159.435 239.516,159.144 239.867 C 158.527 240.611,156.540 240.542,156.243 239.767 C 155.743 238.465,155.971 191.389,156.480 190.880 C 157.339 190.021,158.786 190.311,159.210 191.426 M83.800 193.793 C 71.494 196.894,65.063 207.647,67.796 220.548 C 72.925 244.755,107.817 243.354,111.629 218.789 C 114.093 202.907,99.531 189.828,83.800 193.793 " stroke="none" fill="#2484c6" fill-rule="evenodd"></path><path id="path1" d="M213.200 82.767 C 193.797 85.095,176.608 99.227,170.290 118.045 C 158.284 153.806,184.901 189.021,222.400 186.988 C 243.168 185.862,257.834 176.593,266.685 159.000 C 285.914 120.782,255.668 77.673,213.200 82.767 M228.847 95.759 C 237.547 98.449,239.633 103.732,237.074 116.600 C 235.732 123.349,235.291 125.905,234.802 129.771 C 233.943 136.570,232.668 140.059,229.976 142.979 C 229.115 143.914,228.135 145.338,227.798 146.143 C 227.462 146.948,226.311 148.573,225.242 149.754 L 223.297 151.902 223.128 163.451 C 222.926 177.242,223.106 176.640,219.110 176.891 C 214.436 177.185,214.807 178.363,214.890 163.491 C 214.959 151.093,214.928 150.510,214.081 148.237 C 211.907 142.408,213.923 138.221,219.300 137.394 C 221.075 137.122,221.311 136.400,219.626 136.400 C 217.630 136.400,216.436 137.104,213.514 140.003 C 210.362 143.130,210.378 143.124,208.753 141.966 C 205.221 139.451,204.620 131.019,207.265 121.089 C 208.393 116.854,208.775 116.766,219.000 118.409 C 222.159 118.916,225.600 118.906,225.600 118.390 C 225.600 117.658,223.732 117.242,218.518 116.812 C 211.937 116.271,209.513 115.733,209.692 114.855 C 209.864 114.011,212.819 114.117,220.553 115.244 C 226.344 116.089,227.702 115.931,226.342 114.571 C 225.864 114.092,223.939 113.823,218.091 113.416 C 209.979 112.852,209.600 112.771,209.600 111.600 C 209.600 110.014,212.805 109.883,219.599 111.192 C 224.218 112.081,226.621 112.213,227.000 111.599 C 227.437 110.893,225.224 110.387,219.037 109.778 C 211.149 109.001,210.400 108.866,210.400 108.225 C 210.400 107.026,213.956 106.869,220.000 107.800 C 224.395 108.477,227.452 108.564,227.788 108.020 C 228.264 107.250,226.220 106.735,221.274 106.378 C 211.111 105.647,210.086 105.213,210.917 102.000 C 212.384 96.323,220.987 93.328,228.847 95.759 M369.743 191.182 C 365.266 192.249,361.600 197.171,361.600 202.114 C 361.600 207.111,365.091 211.206,372.503 214.903 C 381.399 219.340,384.422 223.803,382.053 229.000 C 378.085 237.704,367.418 237.141,364.018 228.048 C 363.098 225.588,363.036 225.522,361.836 225.723 C 358.115 226.346,357.556 227.714,359.213 232.144 C 363.548 243.728,381.684 243.705,387.119 232.107 C 391.043 223.732,386.864 215.612,375.649 209.825 C 369.843 206.829,367.600 204.868,367.600 202.786 C 367.600 196.901,374.911 194.802,378.000 199.800 C 379.324 201.942,384.455 200.949,383.779 198.681 C 382.036 192.829,376.111 189.663,369.743 191.182 M214.900 191.450 C 214.109 191.793,214.226 196.648,215.033 196.957 C 215.381 197.091,217.789 197.200,220.384 197.200 C 223.842 197.200,225.221 197.343,225.547 197.737 C 225.859 198.112,226.024 204.618,226.096 219.437 L 226.200 240.600 228.288 240.720 C 232.242 240.949,231.911 242.923,231.887 219.232 C 231.870 203.018,231.977 198.309,232.372 197.833 C 232.770 197.354,234.011 197.199,238.140 197.111 L 243.400 197.000 243.400 194.462 C 243.400 193.066,243.276 191.847,243.123 191.753 C 242.704 191.494,215.474 191.201,214.900 191.450 M263.270 191.930 C 262.869 192.331,261.894 194.446,261.105 196.630 C 259.718 200.465,254.560 214.591,251.695 222.400 C 249.299 228.931,246.000 238.909,246.000 239.625 C 246.000 240.413,248.823 241.010,250.530 240.582 C 251.661 240.298,252.490 238.500,254.764 231.400 C 255.469 229.200,256.440 226.590,256.923 225.600 L 257.800 223.800 264.179 223.906 C 271.995 224.036,271.827 223.947,273.564 228.857 C 274.292 230.916,275.543 234.310,276.344 236.400 L 277.800 240.200 280.736 240.318 L 283.672 240.436 283.392 239.118 C 282.769 236.183,278.007 222.866,272.120 207.600 C 271.568 206.170,270.101 202.079,268.859 198.508 C 266.788 192.556,266.504 191.982,265.440 191.608 C 263.979 191.094,264.128 191.072,263.270 191.930 M291.453 191.480 C 290.936 191.997,291.210 239.957,291.732 240.293 C 292.347 240.689,314.504 240.438,314.922 240.031 C 315.099 239.858,315.189 238.655,315.122 237.358 L 315.000 235.000 306.400 234.661 C 300.682 234.436,297.702 234.168,297.506 233.861 C 297.344 233.608,297.209 224.121,297.206 212.780 C 297.202 197.283,297.081 192.041,296.720 191.680 C 296.210 191.170,291.926 191.007,291.453 191.480 M325.000 191.549 L 323.400 191.800 323.297 216.071 L 323.194 240.342 325.390 240.616 C 329.041 241.072,328.799 241.845,328.806 229.713 C 328.812 219.006,328.967 217.671,330.149 218.125 C 331.125 218.500,335.164 224.169,339.841 231.726 C 342.180 235.507,344.347 239.005,344.656 239.500 C 345.213 240.391,352.328 240.978,351.931 240.100 C 350.902 237.823,348.411 233.848,342.641 225.272 C 335.182 214.186,334.400 212.889,334.400 211.601 C 334.400 210.382,336.613 207.107,341.642 200.883 C 348.598 192.276,349.047 191.198,345.676 191.202 C 341.268 191.207,341.263 191.212,334.717 199.975 C 329.102 207.492,329.328 207.554,328.915 198.381 L 328.600 191.400 327.600 191.349 C 327.050 191.320,325.880 191.410,325.000 191.549 M265.975 207.508 C 266.199 208.338,266.920 210.630,267.578 212.601 C 269.004 216.873,269.100 216.732,264.694 216.852 C 260.333 216.971,260.247 216.887,261.168 213.395 C 262.913 206.777,265.068 204.138,265.975 207.508 " stroke="none" fill="#f3772c" fill-rule="evenodd"></path><path id="path2" d="M0.000 200.000 L 0.000 400.000 200.000 400.000 L 400.000 400.000 400.000 200.000 L 400.000 0.000 200.000 0.000 L 0.000 0.000 0.000 200.000 M229.385 82.230 C 258.556 87.332,278.575 115.997,272.805 144.400 C 267.025 172.855,245.204 189.310,215.159 187.873 L 210.030 187.628 210.401 188.514 C 210.902 189.708,212.630 198.373,213.448 203.800 C 222.957 266.821,169.530 324.225,106.000 319.246 C 43.592 314.355,0.213 257.752,12.377 197.081 C 18.581 166.139,42.038 137.198,70.800 124.999 C 72.230 124.393,74.120 123.584,75.000 123.202 C 77.193 122.250,80.958 120.951,83.600 120.234 C 84.810 119.906,86.790 119.358,88.000 119.016 C 93.407 117.487,104.839 116.032,111.600 116.013 C 118.733 115.992,130.387 117.509,136.600 119.268 C 146.801 122.155,153.125 124.553,161.175 128.587 L 166.345 131.178 166.616 128.889 C 170.201 98.543,199.240 76.957,229.385 82.230 M218.909 96.149 C 214.416 97.293,210.085 102.245,211.949 104.109 C 212.584 104.744,218.113 105.555,221.974 105.579 C 228.339 105.619,232.035 109.093,225.867 109.240 L 224.200 109.279 225.974 109.836 C 228.966 110.774,228.934 112.104,225.906 112.616 L 224.258 112.894 225.829 113.441 C 226.693 113.742,227.445 113.991,227.500 113.994 C 228.299 114.042,227.366 116.137,226.357 116.561 C 225.229 117.035,225.192 117.105,225.957 117.305 C 227.106 117.605,227.066 119.035,225.900 119.348 C 224.533 119.714,221.202 119.647,218.773 119.203 C 208.794 117.382,208.686 117.442,207.357 125.600 C 205.319 138.108,207.982 144.467,213.104 139.324 C 216.690 135.724,222.400 134.188,222.400 136.824 C 222.400 137.613,221.939 137.805,219.128 138.187 C 214.699 138.787,213.020 142.442,214.879 147.437 C 215.717 149.689,215.759 150.418,215.779 162.899 L 215.800 175.999 218.644 175.999 L 221.489 176.000 221.741 173.900 C 221.880 172.745,221.995 167.609,221.997 162.487 C 222.000 152.161,222.125 151.509,224.504 149.316 C 225.270 148.610,226.296 147.170,226.785 146.116 C 227.273 145.062,228.257 143.570,228.972 142.800 C 231.683 139.876,232.646 137.229,233.774 129.600 C 234.116 127.290,234.663 123.960,234.990 122.200 C 237.643 107.929,237.736 105.722,235.850 101.867 C 233.571 97.208,225.478 94.477,218.909 96.149 M213.200 108.396 C 213.970 108.569,216.580 108.807,219.000 108.924 L 223.400 109.138 220.200 108.599 C 216.647 108.001,210.677 107.827,213.200 108.396 M211.500 111.071 C 210.651 111.299,210.589 111.834,211.378 112.136 C 211.695 112.258,214.710 112.445,218.078 112.551 C 221.445 112.657,223.660 112.660,223.000 112.557 C 222.340 112.453,220.450 112.118,218.800 111.812 C 214.941 111.096,212.381 110.836,211.500 111.071 M211.780 115.277 C 212.209 115.526,214.369 115.784,216.580 115.852 L 220.600 115.974 216.800 115.409 C 211.878 114.678,210.693 114.646,211.780 115.277 M378.324 190.952 C 381.549 192.640,385.030 197.194,384.723 199.322 C 384.310 202.189,378.862 202.752,377.093 200.110 C 374.292 195.930,368.800 197.526,368.800 202.521 C 368.800 204.710,370.823 206.587,375.680 208.906 C 390.126 215.804,394.041 228.656,384.350 237.369 C 374.698 246.047,357.788 240.573,357.466 228.667 L 357.400 226.242 359.210 225.562 C 363.031 224.125,363.201 224.192,365.000 227.877 C 367.457 232.908,369.267 234.400,372.915 234.400 C 378.945 234.400,383.469 227.633,380.860 222.517 C 379.998 220.828,376.661 217.600,375.777 217.600 C 375.496 217.600,375.207 217.441,375.133 217.247 C 375.060 217.053,373.093 215.985,370.763 214.872 C 357.676 208.625,357.006 194.487,369.600 190.351 C 371.280 189.799,376.855 190.183,378.324 190.952 M83.600 191.151 C 53.465 198.001,61.691 244.714,92.279 240.435 C 106.949 238.382,115.364 227.743,113.967 213.013 C 112.450 197.016,99.336 187.575,83.600 191.151 M132.813 190.884 C 126.940 192.191,123.579 199.102,126.141 204.603 C 127.608 207.754,130.821 210.149,137.510 213.077 C 140.131 214.224,141.858 215.353,144.739 217.800 C 149.687 222.004,148.984 230.844,143.337 235.437 C 136.258 241.195,127.549 239.277,123.693 231.111 C 122.415 228.405,121.353 227.952,121.790 230.300 C 124.222 243.364,143.683 243.781,148.769 230.878 C 151.950 222.809,148.081 216.529,136.200 210.474 C 133.560 209.129,130.720 207.464,129.888 206.775 C 123.617 201.578,127.220 192.546,135.611 192.430 C 137.961 192.398,138.638 192.712,141.301 195.071 C 143.456 196.979,144.690 196.937,143.543 194.993 C 141.401 191.362,137.453 189.850,132.813 190.884 M244.137 191.225 C 244.506 191.638,244.587 192.648,244.425 194.800 L 244.200 197.800 238.800 198.000 L 233.400 198.200 233.143 200.600 C 233.002 201.920,232.867 211.469,232.843 221.820 C 232.794 243.266,233.120 241.600,228.969 241.600 C 225.008 241.600,225.324 243.346,224.994 219.600 C 224.788 204.746,224.570 198.514,224.251 198.306 C 224.003 198.144,221.877 198.009,219.526 198.006 C 213.265 197.997,213.139 197.919,213.283 194.120 C 213.394 191.201,213.454 191.021,214.400 190.791 C 216.702 190.233,243.600 190.626,244.137 191.225 M298.045 191.259 C 298.233 191.556,298.391 201.180,298.394 212.645 L 298.400 233.490 307.100 233.845 L 315.800 234.200 315.918 237.338 C 315.991 239.307,315.861 240.685,315.569 241.038 C 314.922 241.817,291.522 241.876,290.891 241.100 C 290.196 240.247,290.062 191.257,290.753 190.829 C 291.646 190.277,297.647 190.630,298.045 191.259 M328.974 190.790 L 330.000 191.180 330.000 197.366 C 330.000 200.769,330.146 203.643,330.325 203.754 C 330.611 203.931,334.905 198.487,338.232 193.729 C 340.002 191.197,341.138 190.696,345.221 190.644 C 347.151 190.620,348.877 190.746,349.056 190.924 C 349.620 191.486,347.311 195.239,343.491 199.969 C 333.753 212.022,334.018 210.772,339.484 218.906 C 355.506 242.746,355.200 241.932,347.935 241.340 C 344.070 241.026,344.713 241.608,340.501 234.600 C 336.601 228.111,330.878 219.600,330.415 219.600 C 330.257 219.600,330.011 224.305,329.867 230.056 C 329.697 236.867,329.448 240.701,329.154 241.056 C 328.539 241.796,323.468 241.805,322.855 241.066 C 322.336 240.441,322.173 191.664,322.688 191.156 C 322.860 190.987,323.900 190.780,325.000 190.696 C 326.100 190.613,327.213 190.512,327.474 190.472 C 327.735 190.432,328.410 190.576,328.974 190.790 M266.792 191.196 C 267.236 191.433,267.967 192.911,268.621 194.896 C 269.580 197.804,270.805 201.162,274.205 210.200 C 274.702 211.520,276.192 215.480,277.517 219.000 C 283.211 234.124,285.153 240.207,284.496 240.864 C 284.066 241.294,278.842 241.388,277.571 240.989 C 276.958 240.796,276.199 239.020,272.705 229.600 L 270.999 225.000 266.800 224.730 C 264.490 224.581,261.751 224.351,260.714 224.218 C 258.405 223.922,258.260 224.151,255.396 232.600 C 252.329 241.648,252.367 241.600,248.196 241.600 C 244.410 241.600,244.219 241.255,245.607 236.913 C 247.075 232.317,253.533 214.133,255.023 210.400 C 255.330 209.630,256.924 205.274,258.565 200.721 C 262.359 190.197,262.014 190.800,264.240 190.800 C 265.237 190.800,266.385 190.978,266.792 191.196 M53.064 191.469 C 52.907 191.626,52.796 200.997,52.818 212.293 C 52.856 232.551,52.845 232.854,51.994 234.612 C 49.487 239.791,42.420 239.789,39.384 234.609 C 38.111 232.437,37.821 232.341,38.121 234.192 C 38.944 239.264,47.217 242.432,50.764 239.034 C 53.916 236.014,54.274 232.903,54.231 208.834 C 54.201 192.138,54.088 190.446,53.064 191.469 M157.099 215.100 C 157.154 228.245,157.295 239.255,157.412 239.567 C 158.157 241.541,158.448 238.494,158.425 228.955 C 158.411 223.260,158.542 218.381,158.715 218.113 C 159.349 217.137,180.732 217.221,180.689 218.200 C 180.411 224.527,180.880 240.000,181.350 240.000 C 181.653 240.000,181.982 239.505,182.081 238.900 C 182.339 237.337,182.139 191.605,181.873 191.340 C 180.972 190.439,180.800 192.410,180.800 203.624 L 180.800 215.600 169.616 215.600 L 158.431 215.600 158.379 204.100 C 158.350 197.775,158.332 192.285,158.339 191.900 C 158.345 191.505,158.056 191.200,157.675 191.200 C 157.048 191.200,157.007 192.901,157.099 215.100 M98.300 193.978 C 100.115 194.682,101.600 195.413,101.600 195.602 C 101.600 195.791,101.970 196.063,102.421 196.207 C 107.477 197.811,112.908 207.736,112.924 215.400 C 112.975 239.469,79.100 247.905,68.755 226.400 C 59.090 206.311,77.633 185.963,98.300 193.978 M263.623 209.254 C 262.469 211.864,261.538 215.698,261.957 216.117 C 262.637 216.797,267.684 215.991,267.385 215.251 C 267.241 214.893,266.688 213.167,266.157 211.416 C 264.903 207.280,264.608 207.028,263.623 209.254 M109.200 230.338 C 109.200 230.524,108.825 231.015,108.367 231.430 C 107.535 232.183,107.534 232.182,108.031 231.092 C 108.502 230.057,109.200 229.607,109.200 230.338 M102.654 236.202 C 101.204 236.959,100.766 236.951,101.776 236.187 C 102.204 235.864,102.834 235.601,103.176 235.602 C 103.519 235.604,103.284 235.874,102.654 236.202 " stroke="none" fill="#fbfbfb" fill-rule="evenodd"></path><path id="path3" d="M104.400 116.630 C 88.670 118.426,78.735 121.295,66.200 127.660 C -0.892 161.727,-8.461 254.422,52.194 299.175 C 58.519 303.842,74.992 312.741,75.803 311.930 C 75.906 311.827,74.957 311.328,73.695 310.820 C 48.097 300.525,26.223 277.489,17.274 251.400 C 5.504 217.092,11.666 181.609,34.190 153.991 C 39.550 147.419,40.206 146.716,44.185 143.273 C 52.052 136.467,58.285 132.211,66.546 128.005 C 89.803 116.165,114.255 113.777,139.522 120.878 C 147.017 122.984,153.251 125.466,161.141 129.484 C 163.858 130.868,166.288 131.995,166.541 131.989 C 168.217 131.949,152.569 124.764,145.168 122.176 C 133.222 117.998,114.602 115.465,104.400 116.630 M209.426 188.700 C 209.558 189.305,209.753 190.069,209.859 190.398 C 213.721 202.449,214.167 227.962,210.753 241.600 C 196.197 299.753,136.224 332.586,80.034 313.162 C 77.109 312.151,74.659 311.773,77.245 312.732 C 149.605 339.561,224.444 279.053,212.872 203.075 C 211.795 196.003,209.982 187.600,209.532 187.600 C 209.341 187.600,209.293 188.095,209.426 188.700 M85.000 190.006 C 66.810 193.624,58.303 211.448,66.853 228.028 C 72.843 239.645,85.882 244.338,98.932 239.576 C 127.934 228.991,115.284 183.982,85.000 190.006 M133.200 189.973 C 127.991 191.017,124.260 195.516,124.220 200.800 C 124.182 205.812,126.995 208.768,135.927 213.105 C 145.841 217.919,149.452 224.196,146.059 230.718 C 140.925 240.588,129.277 240.516,124.527 230.585 C 123.593 228.634,123.188 228.177,122.296 228.074 C 117.835 227.557,122.985 237.340,128.540 239.936 C 140.110 245.340,154.075 233.756,150.047 222.097 C 148.313 217.075,145.488 214.439,137.468 210.356 C 131.390 207.262,129.087 205.482,128.377 203.331 C 125.839 195.641,134.128 189.921,140.161 195.200 C 143.726 198.319,146.494 197.795,144.262 194.422 C 142.808 192.225,140.944 190.932,138.200 190.217 C 135.664 189.556,135.353 189.541,133.200 189.973 M96.627 190.734 C 116.552 196.010,121.416 225.459,104.200 236.587 C 88.235 246.906,68.416 238.757,64.633 220.317 C 60.805 201.659,77.965 185.793,96.627 190.734 M137.903 190.539 C 140.577 191.233,142.833 192.810,143.922 194.746 C 145.344 197.277,143.498 197.667,140.973 195.369 C 138.371 193.002,137.729 192.694,135.439 192.714 C 128.154 192.780,124.566 200.966,129.610 206.010 C 130.396 206.796,133.551 208.738,136.620 210.324 C 145.258 214.790,147.408 216.702,149.212 221.524 C 154.246 234.978,136.618 247.028,125.824 237.511 C 122.252 234.361,119.900 228.600,122.187 228.600 C 122.760 228.600,123.316 229.307,124.233 231.204 C 128.932 240.929,141.626 240.632,146.584 230.682 C 149.981 223.864,146.352 217.765,135.841 212.627 C 124.870 207.265,121.997 201.378,126.894 194.299 C 129.156 191.030,133.749 189.461,137.903 190.539 M52.576 190.969 C 51.825 191.519,51.800 192.212,51.794 212.269 C 51.788 235.328,51.807 235.154,49.124 236.790 C 45.935 238.734,40.887 237.128,40.188 233.946 C 39.777 232.073,37.483 231.279,36.988 232.839 C 35.315 238.108,46.103 243.563,50.923 239.886 C 54.914 236.842,55.115 235.517,55.271 211.287 C 55.414 188.952,55.407 188.896,52.576 190.969 M156.480 190.880 C 155.971 191.389,155.743 238.465,156.243 239.767 C 156.540 240.542,158.527 240.611,159.144 239.867 C 159.435 239.516,159.623 235.798,159.693 228.967 L 159.800 218.600 169.600 218.600 L 179.400 218.600 179.507 228.976 C 179.618 239.770,179.786 240.800,181.433 240.800 C 183.209 240.800,183.200 240.930,183.200 215.745 C 183.200 191.452,183.136 190.400,181.666 190.400 C 180.070 190.400,180.000 190.931,180.000 203.080 L 180.000 214.800 169.800 214.800 L 159.600 214.800 159.600 203.626 C 159.600 197.334,159.430 192.004,159.210 191.426 C 158.786 190.311,157.339 190.021,156.480 190.880 M54.320 191.142 C 55.250 191.732,54.819 231.990,53.856 234.600 C 52.349 238.684,49.913 240.796,46.708 240.799 C 42.112 240.802,37.600 237.231,37.600 233.591 C 37.600 231.877,38.773 232.131,39.671 234.039 C 42.295 239.612,50.231 239.346,51.944 233.629 C 52.259 232.577,52.400 225.880,52.400 211.934 C 52.400 190.421,52.443 189.952,54.320 191.142 M158.901 193.400 C 159.066 194.720,159.156 200.120,159.101 205.400 L 159.000 215.000 169.600 215.000 L 180.200 215.000 180.306 203.344 C 180.416 191.194,180.641 189.682,182.117 191.157 C 182.878 191.918,183.023 238.742,182.267 239.776 C 181.134 241.326,180.401 240.285,180.392 237.113 C 180.378 232.101,179.951 219.024,179.784 218.500 C 179.662 218.118,177.276 218.000,169.636 218.000 C 162.084 218.000,159.568 218.122,159.324 218.500 C 159.146 218.775,158.978 223.500,158.952 229.000 C 158.894 241.067,159.001 240.000,157.843 240.000 C 156.413 240.000,156.444 240.616,156.570 214.936 C 156.705 187.567,156.557 190.710,157.700 190.872 C 158.478 190.983,158.641 191.325,158.901 193.400 M82.938 193.538 C 54.646 201.902,66.060 244.549,94.779 237.780 C 114.032 233.242,118.868 207.462,102.490 196.677 C 96.918 193.008,89.021 191.740,82.938 193.538 M95.107 193.770 C 120.360 200.493,116.011 236.645,89.800 237.887 C 63.556 239.130,58.262 200.229,83.800 193.793 C 86.539 193.102,92.553 193.090,95.107 193.770 " stroke="none" fill="#99c9e7" fill-rule="evenodd"></path><path id="path4" d="M225.300 82.276 C 225.685 82.376,226.315 82.376,226.700 82.276 C 227.085 82.175,226.770 82.093,226.000 82.093 C 225.230 82.093,224.915 82.175,225.300 82.276 M184.975 94.900 L 183.800 96.200 185.100 95.025 C 186.312 93.930,186.584 93.600,186.275 93.600 C 186.206 93.600,185.621 94.185,184.975 94.900 M224.100 95.476 C 224.485 95.576,225.115 95.576,225.500 95.476 C 225.885 95.375,225.570 95.293,224.800 95.293 C 224.030 95.293,223.715 95.375,224.100 95.476 M236.324 101.800 C 236.526 102.240,236.792 102.870,236.914 103.200 C 237.107 103.718,237.141 103.715,237.168 103.176 C 237.186 102.834,236.920 102.204,236.578 101.776 C 235.966 101.012,235.962 101.013,236.324 101.800 M217.505 105.883 C 218.002 105.979,218.722 105.975,219.105 105.875 C 219.487 105.775,219.080 105.696,218.200 105.701 C 217.320 105.705,217.007 105.787,217.505 105.883 M237.714 107.800 C 237.717 108.900,237.795 109.303,237.887 108.695 C 237.979 108.086,237.977 107.186,237.882 106.695 C 237.787 106.203,237.711 106.700,237.714 107.800 M211.900 110.682 C 212.395 110.778,213.205 110.778,213.700 110.682 C 214.195 110.587,213.790 110.509,212.800 110.509 C 211.810 110.509,211.405 110.587,211.900 110.682 M223.700 112.287 C 224.305 112.378,225.295 112.378,225.900 112.287 C 226.505 112.195,226.010 112.120,224.800 112.120 C 223.590 112.120,223.095 112.195,223.700 112.287 M216.705 113.083 C 217.202 113.179,217.922 113.175,218.305 113.075 C 218.687 112.975,218.280 112.896,217.400 112.901 C 216.520 112.905,216.207 112.987,216.705 113.083 M210.000 114.776 C 210.000 114.983,210.208 115.281,210.462 115.438 C 210.740 115.610,210.815 115.548,210.652 115.284 C 210.473 114.995,211.033 114.793,212.290 114.694 L 214.200 114.544 212.100 114.472 C 210.945 114.432,210.000 114.569,210.000 114.776 M220.900 116.676 C 221.285 116.776,221.915 116.776,222.300 116.676 C 222.685 116.575,222.370 116.493,221.600 116.493 C 220.830 116.493,220.515 116.575,220.900 116.676 M209.905 117.883 C 210.402 117.979,211.122 117.975,211.505 117.875 C 211.887 117.775,211.480 117.696,210.600 117.701 C 209.720 117.705,209.407 117.787,209.905 117.883 M272.909 130.000 C 272.909 130.990,272.987 131.395,273.082 130.900 C 273.178 130.405,273.178 129.595,273.082 129.100 C 272.987 128.605,272.909 129.010,272.909 130.000 M166.901 130.200 C 166.905 131.080,166.987 131.393,167.083 130.895 C 167.179 130.398,167.175 129.678,167.075 129.295 C 166.975 128.913,166.896 129.320,166.901 130.200 M206.148 132.800 C 206.148 135.110,206.214 136.055,206.295 134.900 C 206.376 133.745,206.376 131.855,206.295 130.700 C 206.214 129.545,206.148 130.490,206.148 132.800 M272.901 139.000 C 272.905 139.880,272.987 140.193,273.083 139.695 C 273.179 139.198,273.175 138.478,273.075 138.095 C 272.975 137.713,272.896 138.120,272.901 139.000 M229.178 143.100 L 227.800 144.600 229.300 143.222 C 230.696 141.938,230.984 141.600,230.678 141.600 C 230.612 141.600,229.937 142.275,229.178 143.100 M215.314 153.400 C 215.317 154.500,215.395 154.903,215.487 154.295 C 215.579 153.686,215.577 152.786,215.482 152.295 C 215.387 151.803,215.311 152.300,215.314 153.400 M222.573 162.200 C 222.573 167.480,222.630 169.585,222.699 166.877 C 222.768 164.169,222.768 159.849,222.699 157.277 C 222.629 154.705,222.572 156.920,222.573 162.200 M268.465 156.217 C 267.795 157.688,267.923 158.002,268.647 156.665 C 268.986 156.040,269.188 155.454,269.096 155.363 C 269.005 155.271,268.721 155.656,268.465 156.217 M266.000 161.200 C 265.551 162.080,265.274 162.800,265.384 162.800 C 265.494 162.800,265.951 162.080,266.400 161.200 C 266.849 160.320,267.126 159.600,267.016 159.600 C 266.906 159.600,266.449 160.320,266.000 161.200 M215.384 170.300 L 215.400 176.600 218.400 176.630 L 221.400 176.661 218.510 176.513 L 215.620 176.365 215.494 170.182 L 215.369 163.999 215.384 170.300 M257.588 172.700 L 255.000 175.400 257.700 172.812 C 259.185 171.388,260.400 170.173,260.400 170.112 C 260.400 169.817,259.993 170.192,257.588 172.700 M248.297 179.966 C 246.653 181.019,246.425 181.391,247.875 180.654 C 248.576 180.297,249.261 179.824,249.398 179.603 C 249.719 179.084,249.623 179.115,248.297 179.966 M210.900 187.491 C 211.725 187.578,213.075 187.578,213.900 187.491 C 214.725 187.405,214.050 187.334,212.400 187.334 C 210.750 187.334,210.075 187.405,210.900 187.491 M222.300 187.482 C 222.795 187.578,223.605 187.578,224.100 187.482 C 224.595 187.387,224.190 187.309,223.200 187.309 C 222.210 187.309,221.805 187.387,222.300 187.482 M372.500 190.276 C 372.885 190.376,373.515 190.376,373.900 190.276 C 374.285 190.175,373.970 190.093,373.200 190.093 C 372.430 190.093,372.115 190.175,372.500 190.276 M214.080 191.280 C 213.816 191.544,213.627 192.489,213.660 193.380 L 213.720 195.000 213.960 193.200 L 214.200 191.400 228.800 191.192 L 243.400 190.985 228.980 190.892 C 218.192 190.823,214.439 190.921,214.080 191.280 M292.500 191.091 C 293.325 191.178,294.675 191.178,295.500 191.091 C 296.325 191.005,295.650 190.934,294.000 190.934 C 292.350 190.934,291.675 191.005,292.500 191.091 M325.507 191.090 C 326.226 191.179,327.306 191.177,327.907 191.086 C 328.508 190.995,327.920 190.922,326.600 190.924 C 325.280 190.926,324.788 191.001,325.507 191.090 M344.988 191.090 C 346.857 191.176,348.317 191.436,348.518 191.718 C 348.761 192.059,348.813 192.025,348.698 191.600 C 348.571 191.130,347.806 190.994,345.168 190.972 L 341.800 190.943 344.988 191.090 M262.155 192.212 C 261.790 192.769,261.564 193.298,261.653 193.387 C 261.742 193.476,262.118 193.020,262.489 192.374 C 263.314 190.936,263.069 190.817,262.155 192.212 M329.301 192.600 C 329.305 193.480,329.387 193.793,329.483 193.295 C 329.579 192.798,329.575 192.078,329.475 191.695 C 329.375 191.313,329.296 191.720,329.301 192.600 M381.000 193.600 C 381.859 194.480,382.652 195.200,382.762 195.200 C 382.872 195.200,382.259 194.480,381.400 193.600 C 380.541 192.720,379.748 192.000,379.638 192.000 C 379.528 192.000,380.141 192.720,381.000 193.600 M364.575 193.700 L 363.400 195.000 364.700 193.825 C 365.415 193.179,366.000 192.594,366.000 192.525 C 366.000 192.216,365.670 192.488,364.575 193.700 M297.786 213.800 C 297.786 224.800,297.837 229.242,297.900 223.672 C 297.963 218.102,297.962 209.102,297.900 203.672 C 297.837 198.242,297.785 202.800,297.786 213.800 M329.301 196.200 C 329.305 197.080,329.387 197.393,329.483 196.895 C 329.579 196.398,329.575 195.678,329.475 195.295 C 329.375 194.913,329.296 195.320,329.301 196.200 M215.100 197.482 C 215.595 197.578,216.405 197.578,216.900 197.482 C 217.395 197.387,216.990 197.309,216.000 197.309 C 215.010 197.309,214.605 197.387,215.100 197.482 M372.105 197.487 C 372.714 197.579,373.614 197.577,374.105 197.482 C 374.597 197.387,374.100 197.311,373.000 197.314 C 371.900 197.317,371.497 197.395,372.105 197.487 M224.693 197.889 C 225.057 198.147,225.217 200.961,225.304 208.619 L 225.421 219.000 225.410 208.433 C 225.402 199.386,225.314 197.843,224.800 197.703 C 224.363 197.584,224.334 197.634,224.693 197.889 M232.562 198.154 C 232.445 198.459,232.419 199.494,232.505 200.454 L 232.660 202.200 232.730 200.129 C 232.784 198.530,232.960 198.017,233.500 197.876 C 234.156 197.704,234.155 197.690,233.487 197.646 C 233.096 197.621,232.679 197.849,232.562 198.154 M360.909 202.000 C 360.909 202.990,360.987 203.395,361.082 202.900 C 361.178 202.405,361.178 201.595,361.082 201.100 C 360.987 200.605,360.909 201.010,360.909 202.000 M330.804 204.196 C 330.532 204.523,330.150 204.693,329.955 204.572 C 329.760 204.451,329.600 204.543,329.600 204.776 C 329.600 205.439,330.207 205.276,331.000 204.400 C 331.398 203.960,331.628 203.600,331.511 203.600 C 331.394 203.600,331.076 203.868,330.804 204.196 M232.166 213.200 C 232.166 217.270,232.225 218.935,232.298 216.900 C 232.371 214.865,232.371 211.535,232.298 209.500 C 232.225 207.465,232.166 209.130,232.166 213.200 M264.203 206.795 C 264.067 207.015,264.213 207.093,264.530 206.972 C 264.908 206.827,265.192 207.116,265.370 207.823 C 265.518 208.412,265.725 208.808,265.831 208.703 C 265.936 208.597,265.842 208.036,265.621 207.455 C 265.208 206.369,264.632 206.101,264.203 206.795 M384.000 215.000 C 384.746 215.770,385.447 216.400,385.557 216.400 C 385.667 216.400,385.146 215.770,384.400 215.000 C 383.654 214.230,382.953 213.600,382.843 213.600 C 382.733 213.600,383.254 214.230,384.000 215.000 M263.111 216.693 C 264.051 216.778,265.491 216.777,266.311 216.691 C 267.130 216.605,266.360 216.536,264.600 216.537 C 262.840 216.539,262.170 216.609,263.111 216.693 M329.377 218.915 C 329.268 219.199,329.234 222.394,329.300 226.015 L 329.421 232.600 329.511 225.700 C 329.604 218.481,329.630 218.373,330.969 219.500 C 331.799 220.199,331.799 220.199,331.038 219.300 C 330.176 218.281,329.666 218.163,329.377 218.915 M379.414 220.026 C 380.286 221.031,381.228 222.201,381.506 222.626 C 381.784 223.052,381.754 222.860,381.440 222.200 C 381.125 221.540,380.184 220.370,379.348 219.600 L 377.828 218.200 379.414 220.026 M388.928 225.600 C 388.928 227.030,389.001 227.615,389.089 226.900 C 389.178 226.185,389.178 225.015,389.089 224.300 C 389.001 223.585,388.928 224.170,388.928 225.600 M264.900 224.276 C 265.285 224.376,265.915 224.376,266.300 224.276 C 266.685 224.175,266.370 224.093,265.600 224.093 C 264.830 224.093,264.515 224.175,264.900 224.276 M362.700 225.212 C 363.195 225.411,363.600 225.790,363.600 226.054 C 363.600 226.318,363.716 226.418,363.857 226.276 C 364.247 225.886,363.191 224.797,362.451 224.825 C 362.010 224.843,362.091 224.968,362.700 225.212 M366.000 231.325 C 366.000 231.394,366.585 231.979,367.300 232.625 L 368.600 233.800 367.425 232.500 C 366.330 231.288,366.000 231.016,366.000 231.325 M304.118 234.298 C 305.833 234.373,308.533 234.372,310.118 234.297 C 311.703 234.221,310.300 234.159,307.000 234.160 C 303.700 234.161,302.403 234.222,304.118 234.298 M384.378 236.700 L 383.000 238.200 384.500 236.822 C 385.896 235.538,386.184 235.200,385.878 235.200 C 385.812 235.200,385.137 235.875,384.378 236.700 M361.600 237.000 C 362.346 237.770,363.047 238.400,363.157 238.400 C 363.267 238.400,362.746 237.770,362.000 237.000 C 361.254 236.230,360.553 235.600,360.443 235.600 C 360.333 235.600,360.854 236.230,361.600 237.000 M232.124 238.200 C 232.126 239.520,232.201 240.012,232.290 239.293 C 232.379 238.574,232.377 237.494,232.286 236.893 C 232.195 236.292,232.122 236.880,232.124 238.200 M291.146 240.906 C 291.314 241.075,296.751 241.164,303.226 241.106 L 315.000 240.999 302.920 240.800 C 296.275 240.690,290.977 240.738,291.146 240.906 M351.000 240.800 L 349.800 241.105 350.876 241.153 C 351.468 241.179,352.064 241.020,352.200 240.800 C 352.336 240.580,352.392 240.421,352.324 240.447 C 352.256 240.473,351.660 240.632,351.000 240.800 M228.500 241.087 C 229.105 241.178,230.095 241.178,230.700 241.087 C 231.305 240.995,230.810 240.920,229.600 240.920 C 228.390 240.920,227.895 240.995,228.500 241.087 M247.091 241.089 C 247.801 241.177,249.061 241.179,249.891 241.092 C 250.721 241.005,250.140 240.933,248.600 240.931 C 247.060 240.929,246.381 241.000,247.091 241.089 M324.300 241.082 C 324.795 241.178,325.605 241.178,326.100 241.082 C 326.595 240.987,326.190 240.909,325.200 240.909 C 324.210 240.909,323.805 240.987,324.300 241.082 " stroke="none" fill="#f9bf9c" fill-rule="evenodd"></path><path id="path5" d="M214.000 82.360 C 213.010 82.492,215.890 82.600,220.400 82.600 C 224.923 82.600,227.614 82.483,226.400 82.340 C 223.709 82.021,216.453 82.033,214.000 82.360 M208.800 83.200 C 208.008 83.454,207.967 83.520,208.600 83.520 C 209.040 83.520,209.850 83.376,210.400 83.200 C 211.192 82.946,211.233 82.880,210.600 82.880 C 210.160 82.880,209.350 83.024,208.800 83.200 M230.000 83.200 C 230.550 83.376,231.360 83.520,231.800 83.520 C 232.433 83.520,232.392 83.454,231.600 83.200 C 231.050 83.024,230.240 82.880,229.800 82.880 C 229.167 82.880,229.208 82.946,230.000 83.200 M205.600 84.000 C 204.796 84.257,204.757 84.323,205.400 84.332 C 205.840 84.338,206.560 84.189,207.000 84.000 C 208.019 83.562,206.968 83.562,205.600 84.000 M200.480 85.760 C 198.654 86.500,197.034 87.246,196.880 87.417 C 196.726 87.588,196.870 87.621,197.200 87.491 C 197.530 87.361,199.237 86.691,200.992 86.001 C 202.748 85.312,204.263 84.670,204.359 84.574 C 204.799 84.134,203.537 84.520,200.480 85.760 M236.000 84.546 C 236.000 84.627,237.125 85.100,238.500 85.598 C 254.195 91.284,267.813 106.611,271.257 122.466 C 271.512 123.640,271.796 124.384,271.887 124.120 C 271.978 123.856,271.668 122.268,271.197 120.590 C 266.728 104.663,254.359 91.166,238.896 85.346 C 236.330 84.380,236.000 84.289,236.000 84.546 M192.914 89.421 C 191.547 90.196,190.324 90.999,190.197 91.205 C 190.070 91.411,191.233 90.848,192.783 89.955 C 194.332 89.062,195.600 88.256,195.600 88.165 C 195.600 87.905,195.539 87.934,192.914 89.421 M185.800 94.433 C 176.597 102.203,170.296 113.009,168.040 124.893 C 167.036 130.182,166.740 132.740,167.221 131.979 C 167.423 131.661,167.592 130.770,167.597 130.000 C 167.666 120.139,174.387 106.304,183.483 97.300 C 186.205 94.605,188.380 92.402,188.316 92.404 C 188.252 92.406,187.120 93.319,185.800 94.433 M221.907 95.090 C 222.626 95.179,223.706 95.177,224.307 95.086 C 224.908 94.995,224.320 94.922,223.000 94.924 C 221.680 94.926,221.188 95.001,221.907 95.090 M213.458 98.002 C 210.517 100.585,209.705 105.219,212.200 105.182 C 212.420 105.178,212.285 104.992,211.900 104.768 C 210.317 103.846,211.467 100.027,213.943 97.986 C 214.735 97.334,215.258 96.800,215.105 96.800 C 214.953 96.800,214.212 97.341,213.458 98.002 M233.684 98.375 C 235.794 100.163,236.868 101.819,237.437 104.162 C 237.709 105.283,237.946 105.840,237.964 105.400 C 238.062 102.922,235.444 98.750,233.025 97.533 C 232.571 97.304,232.868 97.683,233.684 98.375 M219.000 106.199 C 219.220 106.273,221.020 106.412,223.000 106.508 C 224.980 106.603,226.150 106.546,225.600 106.380 C 224.648 106.094,218.165 105.916,219.000 106.199 M238.101 107.800 C 238.105 108.680,238.187 108.993,238.283 108.495 C 238.379 107.998,238.375 107.278,238.275 106.895 C 238.175 106.513,238.096 106.920,238.101 107.800 M227.424 107.371 C 228.347 108.051,227.930 108.287,225.400 108.519 L 223.800 108.666 225.600 108.727 C 227.878 108.804,228.770 108.327,228.025 107.430 C 227.738 107.084,227.310 106.800,227.075 106.800 C 226.839 106.800,226.996 107.057,227.424 107.371 M210.900 107.465 C 210.306 107.704,210.224 108.800,210.800 108.800 C 211.020 108.800,211.155 108.575,211.100 108.300 C 211.030 107.948,211.946 107.733,214.200 107.573 L 217.400 107.347 214.400 107.305 C 212.750 107.282,211.175 107.354,210.900 107.465 M212.100 109.076 C 212.485 109.176,213.115 109.176,213.500 109.076 C 213.885 108.975,213.570 108.893,212.800 108.893 C 212.030 108.893,211.715 108.975,212.100 109.076 M216.300 109.482 C 216.795 109.578,217.605 109.578,218.100 109.482 C 218.595 109.387,218.190 109.309,217.200 109.309 C 216.210 109.309,215.805 109.387,216.300 109.482 M220.305 109.883 C 220.802 109.979,221.522 109.975,221.905 109.875 C 222.287 109.775,221.880 109.696,221.000 109.701 C 220.120 109.705,219.807 109.787,220.305 109.883 M237.440 111.942 C 237.281 113.340,237.237 114.570,237.342 114.676 C 237.608 114.941,238.127 110.579,237.907 109.928 C 237.810 109.638,237.599 110.544,237.440 111.942 M209.745 111.000 C 209.442 111.790,209.847 112.800,210.467 112.800 C 210.851 112.800,210.853 112.693,210.480 112.320 C 209.790 111.630,209.889 110.888,210.700 110.676 C 211.356 110.504,211.355 110.490,210.687 110.446 C 210.296 110.421,209.871 110.670,209.745 111.000 M226.326 110.822 C 226.835 111.026,227.139 111.375,227.002 111.597 C 226.865 111.818,226.943 112.000,227.176 112.000 C 227.409 112.000,227.600 111.749,227.600 111.443 C 227.600 110.883,226.739 110.378,225.867 110.425 C 225.610 110.439,225.817 110.618,226.326 110.822 M212.900 113.087 C 213.505 113.178,214.495 113.178,215.100 113.087 C 215.705 112.995,215.210 112.920,214.000 112.920 C 212.790 112.920,212.295 112.995,212.900 113.087 M219.111 113.493 C 220.051 113.578,221.491 113.577,222.311 113.491 C 223.130 113.405,222.360 113.336,220.600 113.337 C 218.840 113.339,218.170 113.409,219.111 113.493 M209.867 114.267 C 209.463 114.670,209.547 115.600,209.987 115.600 C 210.201 115.600,210.276 115.343,210.156 115.030 C 210.006 114.637,210.291 114.406,211.069 114.290 C 212.170 114.124,212.173 114.118,211.167 114.060 C 210.598 114.027,210.013 114.120,209.867 114.267 M214.500 114.676 C 214.885 114.776,215.515 114.776,215.900 114.676 C 216.285 114.575,215.970 114.493,215.200 114.493 C 214.430 114.493,214.115 114.575,214.500 114.676 M236.640 116.840 C 236.493 117.757,236.452 118.585,236.547 118.680 C 236.642 118.776,236.846 118.110,237.000 117.200 C 237.154 116.290,237.196 115.462,237.093 115.360 C 236.990 115.257,236.787 115.923,236.640 116.840 M217.107 116.690 C 217.826 116.779,218.906 116.777,219.507 116.686 C 220.108 116.595,219.520 116.522,218.200 116.524 C 216.880 116.526,216.388 116.601,217.107 116.690 M208.696 117.700 C 207.881 118.320,206.504 123.235,206.220 126.534 C 206.017 128.907,206.031 128.880,206.612 125.800 C 207.827 119.347,208.443 117.921,210.200 117.489 C 210.981 117.297,210.980 117.292,210.176 117.246 C 209.724 117.221,209.057 117.425,208.696 117.700 M212.705 117.883 C 213.202 117.979,213.922 117.975,214.305 117.875 C 214.687 117.775,214.280 117.696,213.400 117.701 C 212.520 117.705,212.207 117.787,212.705 117.883 M221.907 119.090 C 222.626 119.179,223.706 119.177,224.307 119.086 C 224.908 118.995,224.320 118.922,223.000 118.924 C 221.680 118.926,221.188 119.001,221.907 119.090 M235.869 120.356 C 235.721 121.095,235.620 122.083,235.644 122.550 C 235.668 123.017,235.847 122.590,236.042 121.600 C 236.237 120.610,236.338 119.623,236.267 119.406 C 236.196 119.190,236.017 119.617,235.869 120.356 M235.000 125.600 C 234.845 126.728,234.802 127.736,234.906 127.839 C 235.009 127.942,235.216 127.100,235.367 125.967 C 235.517 124.834,235.559 123.826,235.461 123.728 C 235.363 123.629,235.155 124.472,235.000 125.600 M272.273 127.800 C 272.396 129.560,272.565 131.075,272.649 131.167 C 272.936 131.484,272.753 127.794,272.401 126.200 C 272.142 125.025,272.108 125.450,272.273 127.800 M234.240 130.742 C 234.081 132.140,234.037 133.370,234.142 133.476 C 234.408 133.741,234.927 129.379,234.707 128.728 C 234.610 128.438,234.399 129.344,234.240 130.742 M205.744 132.800 C 205.744 134.890,205.812 135.745,205.894 134.700 C 205.976 133.655,205.976 131.945,205.894 130.900 C 205.812 129.855,205.744 130.710,205.744 132.800 M272.870 133.815 C 272.347 151.878,263.643 169.279,250.750 178.034 C 249.458 178.912,248.400 179.719,248.400 179.827 C 248.400 181.325,258.918 171.757,262.281 167.200 C 269.046 158.033,273.954 142.614,273.103 133.200 C 272.956 131.584,272.933 131.647,272.870 133.815 M233.450 135.250 C 233.117 136.917,233.440 137.240,233.800 135.600 C 233.952 134.909,233.993 134.259,233.891 134.158 C 233.789 134.056,233.591 134.547,233.450 135.250 M219.500 136.289 C 220.904 136.464,221.232 137.029,220.100 137.324 C 219.559 137.466,219.600 137.518,220.276 137.554 C 221.345 137.610,221.909 136.842,221.151 136.361 C 220.848 136.169,220.060 136.038,219.400 136.070 L 218.200 136.128 219.500 136.289 M206.018 137.316 C 205.994 138.265,207.360 140.906,208.247 141.627 C 208.734 142.022,208.674 141.819,208.054 140.971 C 207.559 140.295,206.903 139.035,206.595 138.171 C 206.287 137.307,206.027 136.922,206.018 137.316 M214.283 138.900 L 212.128 141.000 214.164 139.234 C 215.284 138.262,216.371 137.317,216.580 137.134 C 216.789 136.950,216.842 136.800,216.699 136.800 C 216.555 136.800,215.468 137.745,214.283 138.900 M232.262 138.893 C 231.880 139.894,230.674 141.733,229.583 142.980 C 228.493 144.227,227.605 145.461,227.612 145.723 C 227.619 145.985,227.827 145.840,228.074 145.400 C 228.321 144.960,229.202 143.853,230.033 142.940 C 231.675 141.134,233.333 138.199,233.102 137.506 C 233.023 137.268,232.645 137.892,232.262 138.893 M214.420 139.865 C 213.509 141.023,212.956 142.690,213.352 143.085 C 213.488 143.222,213.600 142.985,213.600 142.560 C 213.600 142.134,214.056 141.114,214.614 140.293 C 215.784 138.572,215.657 138.292,214.420 139.865 M211.076 142.046 C 210.677 142.277,210.083 142.364,209.755 142.238 C 209.418 142.109,209.265 142.181,209.403 142.405 C 209.751 142.967,210.523 142.894,211.424 142.213 C 212.326 141.530,212.126 141.434,211.076 142.046 M213.246 145.037 C 213.221 145.498,213.560 146.921,214.000 148.200 C 214.440 149.479,214.832 151.442,214.872 152.563 L 214.944 154.600 215.095 152.671 C 215.190 151.458,214.950 149.827,214.449 148.271 C 214.010 146.912,213.570 145.440,213.472 145.000 C 213.300 144.233,213.291 144.235,213.246 145.037 M224.808 149.792 C 223.841 150.777,223.129 151.641,223.225 151.713 C 223.321 151.784,224.190 150.978,225.157 149.921 C 227.371 147.500,227.141 147.414,224.808 149.792 M222.847 161.400 C 222.782 170.943,222.332 175.941,221.490 176.476 C 221.109 176.719,221.108 176.789,221.486 176.794 C 222.757 176.810,224.035 158.116,223.099 153.200 C 222.995 152.650,222.881 156.340,222.847 161.400 M215.351 159.600 C 215.351 162.130,215.416 163.165,215.496 161.900 C 215.575 160.635,215.575 158.565,215.496 157.300 C 215.416 156.035,215.351 157.070,215.351 159.600 M214.874 170.276 C 214.833 173.618,214.935 176.437,215.100 176.539 C 215.265 176.642,215.353 174.808,215.295 172.463 C 215.108 164.881,214.950 164.059,214.874 170.276 M245.000 181.435 C 242.227 182.986,242.313 183.277,245.113 181.816 C 247.366 180.641,248.347 179.997,247.800 180.053 C 247.580 180.075,246.320 180.697,245.000 181.435 M238.400 184.200 C 237.630 184.497,237.270 184.745,237.600 184.752 C 237.930 184.758,238.740 184.517,239.400 184.214 C 240.945 183.507,240.226 183.497,238.400 184.200 M234.000 185.400 C 233.010 185.687,232.560 185.925,233.000 185.930 C 233.440 185.935,234.520 185.701,235.400 185.411 C 237.471 184.729,236.349 184.720,234.000 185.400 M229.000 186.400 L 227.400 186.686 228.800 186.703 C 229.570 186.713,230.650 186.576,231.200 186.400 C 232.485 185.988,231.299 185.988,229.000 186.400 M212.600 187.221 C 214.580 187.383,217.460 187.505,219.000 187.493 C 221.642 187.472,221.586 187.454,218.000 187.180 C 215.910 187.020,213.030 186.898,211.600 186.908 C 209.227 186.925,209.315 186.952,212.600 187.221 M223.705 187.087 C 224.314 187.179,225.214 187.177,225.705 187.082 C 226.197 186.987,225.700 186.911,224.600 186.914 C 223.500 186.917,223.097 186.995,223.705 187.087 M372.307 190.690 C 373.026 190.779,374.106 190.777,374.707 190.686 C 375.308 190.595,374.720 190.522,373.400 190.524 C 372.080 190.526,371.588 190.601,372.307 190.690 M377.146 191.416 C 377.886 191.737,378.606 191.994,378.746 191.986 C 379.266 191.957,376.976 190.828,376.400 190.830 C 376.070 190.831,376.406 191.094,377.146 191.416 M214.267 191.467 C 213.598 192.135,213.983 197.201,214.700 197.168 C 215.118 197.150,215.199 197.056,214.900 196.935 C 214.574 196.803,214.400 195.852,214.400 194.200 C 214.400 192.548,214.574 191.597,214.900 191.465 C 215.179 191.352,215.209 191.249,214.967 191.232 C 214.728 191.214,214.413 191.320,214.267 191.467 M231.700 191.496 C 232.965 191.575,235.035 191.575,236.300 191.496 C 237.565 191.416,236.530 191.351,234.000 191.351 C 231.470 191.351,230.435 191.416,231.700 191.496 M239.700 191.476 C 240.085 191.576,240.715 191.576,241.100 191.476 C 241.485 191.375,241.170 191.293,240.400 191.293 C 239.630 191.293,239.315 191.375,239.700 191.476 M242.800 191.549 C 243.230 191.821,243.400 192.645,243.400 194.464 L 243.400 197.000 238.226 197.113 C 231.765 197.253,231.980 197.077,232.078 202.149 L 232.157 206.200 232.378 202.000 L 232.600 197.800 237.774 197.687 C 244.018 197.552,244.071 197.520,243.917 194.041 C 243.816 191.762,243.693 191.392,243.000 191.289 C 242.357 191.194,242.318 191.245,242.800 191.549 M262.604 192.138 C 261.879 193.244,259.500 199.633,259.727 199.861 C 259.814 199.947,260.473 198.370,261.194 196.357 C 261.914 194.344,262.840 192.360,263.251 191.949 C 263.663 191.537,263.824 191.200,263.609 191.200 C 263.394 191.200,262.942 191.622,262.604 192.138 M290.897 215.867 C 290.987 237.376,291.077 240.559,291.600 240.732 C 292.079 240.890,292.105 240.815,291.726 240.356 C 291.371 239.925,291.271 233.706,291.326 215.491 C 291.367 202.131,291.264 191.200,291.097 191.200 C 290.930 191.200,290.840 202.300,290.897 215.867 M296.700 191.630 C 297.087 192.040,297.200 196.807,297.200 212.647 C 297.200 235.889,297.041 234.421,299.543 234.340 L 301.400 234.280 299.600 234.040 L 297.800 233.800 297.600 212.633 C 297.427 194.284,297.320 191.442,296.800 191.283 C 296.316 191.135,296.296 191.202,296.700 191.630 M322.984 191.700 C 322.879 191.975,322.839 203.090,322.896 216.400 L 323.000 240.600 324.200 240.658 C 325.346 240.713,325.351 240.708,324.297 240.531 L 323.194 240.346 323.297 216.073 L 323.400 191.800 325.000 191.557 L 326.600 191.314 324.887 191.257 C 323.840 191.222,323.101 191.394,322.984 191.700 M328.921 198.287 C 329.341 207.567,329.098 207.497,334.717 199.975 C 340.225 192.602,340.716 192.048,342.117 191.643 C 342.822 191.439,343.093 191.256,342.719 191.236 C 341.164 191.154,339.901 192.350,336.277 197.343 C 331.960 203.290,330.168 205.491,329.881 205.200 C 329.728 205.045,329.285 196.235,329.212 191.900 C 329.205 191.515,329.065 191.200,328.900 191.200 C 328.735 191.200,328.744 194.389,328.921 198.287 M347.820 191.709 C 348.105 192.450,346.262 195.174,341.473 201.091 C 337.073 206.527,334.395 210.390,334.407 211.281 C 334.411 211.566,334.937 210.852,335.576 209.693 C 336.766 207.535,339.293 204.170,343.131 199.634 C 346.880 195.204,349.197 191.200,348.013 191.200 C 347.799 191.200,347.713 191.429,347.820 191.709 M364.576 194.137 C 358.949 199.945,360.740 208.847,368.400 213.152 C 370.563 214.368,370.446 213.938,368.267 212.660 C 361.017 208.412,359.496 199.651,365.044 194.103 C 366.201 192.947,367.035 192.000,366.897 192.000 C 366.758 192.000,365.714 192.961,364.576 194.137 M380.751 193.730 C 381.697 194.791,382.824 196.456,383.254 197.430 C 384.087 199.313,384.639 199.882,383.999 198.197 C 383.212 196.128,382.417 194.954,380.749 193.400 L 379.031 191.800 380.751 193.730 M266.800 192.495 C 266.800 193.327,271.616 206.517,271.838 206.295 C 271.927 206.207,271.188 203.930,270.197 201.237 C 269.207 198.543,268.195 195.539,267.949 194.562 C 267.599 193.173,266.800 191.735,266.800 192.495 M221.400 197.577 L 225.400 197.800 225.504 218.963 C 225.609 240.604,225.656 241.233,227.149 241.175 C 227.590 241.157,227.509 241.032,226.900 240.788 L 226.000 240.426 226.000 219.293 C 226.000 194.865,226.501 197.170,221.220 197.277 L 217.400 197.355 221.400 197.577 M369.569 198.100 C 365.559 202.283,367.213 205.472,375.649 209.825 C 390.379 217.426,392.940 230.850,381.200 238.930 C 380.200 239.618,380.200 239.618,381.400 239.040 C 387.642 236.036,390.596 226.238,387.286 219.514 C 385.359 215.599,382.023 212.714,375.580 209.390 C 369.939 206.479,368.000 204.786,368.000 202.770 C 368.000 201.256,369.310 198.648,370.484 197.826 C 370.976 197.482,371.165 197.200,370.905 197.200 C 370.644 197.200,370.043 197.605,369.569 198.100 M375.566 197.764 C 376.098 198.058,377.005 198.997,377.583 199.850 C 378.343 200.973,378.933 201.413,379.721 201.449 C 380.707 201.493,380.717 201.481,379.822 201.324 C 379.242 201.222,378.484 200.583,377.984 199.775 C 377.115 198.368,375.746 197.189,375.011 197.214 C 374.785 197.222,375.035 197.469,375.566 197.764 M382.400 200.400 C 381.630 200.822,381.144 201.174,381.320 201.183 C 381.744 201.205,384.000 200.032,384.000 199.790 C 384.000 199.528,383.977 199.537,382.400 200.400 M257.637 205.038 C 256.706 207.589,256.021 209.754,256.114 209.848 C 256.208 209.941,257.045 207.929,257.975 205.375 C 258.905 202.821,259.590 200.657,259.498 200.565 C 259.406 200.473,258.569 202.486,257.637 205.038 M263.594 207.208 C 262.647 208.538,261.418 211.818,261.050 214.000 C 260.919 214.770,261.265 214.007,261.817 212.305 C 263.475 207.193,264.825 205.402,265.588 207.300 C 265.787 207.795,265.961 207.990,265.975 207.733 C 266.080 205.798,264.799 205.516,263.594 207.208 M272.107 207.400 C 272.612 209.197,280.556 229.977,280.688 229.846 C 280.924 229.609,272.593 207.242,272.103 206.800 C 271.982 206.690,271.983 206.960,272.107 207.400 M231.728 210.800 C 231.728 212.230,231.801 212.815,231.889 212.100 C 231.978 211.385,231.978 210.215,231.889 209.500 C 231.801 208.785,231.728 209.370,231.728 210.800 M266.030 208.636 C 266.013 208.876,266.533 210.669,267.185 212.622 C 268.075 215.287,268.249 216.248,267.885 216.480 C 267.517 216.713,267.515 216.789,267.876 216.794 C 268.810 216.806,268.738 216.098,267.408 212.174 C 266.666 209.988,266.046 208.396,266.030 208.636 M253.113 217.497 C 250.539 224.489,249.540 227.531,250.387 225.800 C 251.148 224.243,256.026 210.692,255.878 210.545 C 255.796 210.462,254.551 213.591,253.113 217.497 M334.404 212.120 C 334.395 212.837,336.029 215.446,342.641 225.272 C 346.455 230.941,350.034 236.484,350.595 237.590 C 351.155 238.695,351.703 239.600,351.813 239.600 C 352.374 239.600,349.233 234.439,343.305 225.619 C 339.675 220.218,336.188 214.900,335.556 213.800 C 334.924 212.700,334.406 211.944,334.404 212.120 M370.433 214.153 C 370.841 214.527,376.400 217.189,376.400 217.010 C 376.400 216.787,370.978 214.000,370.543 214.000 C 370.391 214.000,370.342 214.069,370.433 214.153 M231.693 216.000 C 231.693 216.770,231.775 217.085,231.876 216.700 C 231.976 216.315,231.976 215.685,231.876 215.300 C 231.775 214.915,231.693 215.230,231.693 216.000 M378.868 219.127 C 383.930 223.769,383.378 230.037,377.603 233.500 C 375.203 234.940,375.181 235.234,377.566 234.018 C 384.450 230.506,384.368 222.437,377.400 217.602 C 376.960 217.296,377.621 217.983,378.868 219.127 M329.116 218.071 C 329.070 218.142,328.935 223.232,328.816 229.382 L 328.600 240.565 327.600 240.842 C 326.762 241.075,326.733 241.127,327.420 241.160 C 329.127 241.243,329.200 240.764,329.200 229.544 C 329.200 217.817,329.313 217.272,331.265 219.610 C 333.866 222.726,344.000 238.599,344.000 239.558 C 344.000 240.611,351.528 241.482,352.140 240.500 C 352.242 240.335,350.735 240.257,348.790 240.328 C 345.458 240.448,345.221 240.402,344.674 239.528 C 344.355 239.017,342.153 235.464,339.782 231.632 C 333.616 221.668,329.872 216.907,329.116 218.071 M232.146 224.200 C 232.147 226.400,232.214 227.249,232.295 226.087 C 232.376 224.924,232.376 223.124,232.293 222.087 C 232.211 221.049,232.145 222.000,232.146 224.200 M257.691 224.100 C 257.148 224.767,255.950 227.683,256.140 227.874 C 256.223 227.957,256.674 227.134,257.142 226.047 C 257.610 224.959,258.219 223.978,258.496 223.866 C 258.809 223.740,258.829 223.651,258.549 223.632 C 258.301 223.614,257.915 223.825,257.691 224.100 M261.491 223.889 C 262.201 223.977,263.461 223.979,264.291 223.892 C 265.121 223.805,264.540 223.733,263.000 223.731 C 261.460 223.729,260.781 223.800,261.491 223.889 M267.700 224.287 C 268.305 224.378,269.295 224.378,269.900 224.287 C 270.505 224.195,270.010 224.120,268.800 224.120 C 267.590 224.120,267.095 224.195,267.700 224.287 M271.457 224.800 C 271.684 225.130,272.283 226.531,272.788 227.913 C 273.294 229.295,273.779 230.354,273.868 230.266 C 274.154 229.979,272.324 225.418,271.675 224.800 C 271.114 224.267,271.090 224.267,271.457 224.800 M359.819 225.826 C 357.872 226.550,357.612 226.947,357.892 228.766 C 358.711 234.090,362.720 239.006,367.200 240.179 C 367.750 240.323,367.086 239.886,365.724 239.209 C 360.224 236.474,355.983 227.715,359.500 226.355 C 362.618 225.150,362.986 225.287,364.018 228.048 C 364.933 230.496,366.962 233.230,368.455 234.029 C 368.853 234.242,368.326 233.558,367.284 232.508 C 366.005 231.221,365.061 229.755,364.380 228.000 C 363.241 225.064,362.640 224.778,359.819 225.826 M249.597 226.833 C 249.596 226.925,248.610 229.949,247.406 233.553 C 245.037 240.648,245.025 240.829,246.924 240.740 C 248.133 240.683,248.142 240.671,247.100 240.513 C 245.620 240.289,245.658 239.971,247.988 232.995 C 249.082 229.722,249.892 226.959,249.788 226.855 C 249.685 226.751,249.599 226.742,249.597 226.833 M232.120 230.400 C 232.120 231.610,232.195 232.105,232.287 231.500 C 232.378 230.895,232.378 229.905,232.287 229.300 C 232.195 228.695,232.120 229.190,232.120 230.400 M254.577 231.859 C 252.965 237.173,251.614 240.333,250.867 240.531 C 250.290 240.683,250.298 240.713,250.922 240.754 C 251.919 240.818,256.595 229.262,255.867 228.534 C 255.748 228.415,255.168 229.911,254.577 231.859 M280.800 230.624 C 280.800 230.747,281.322 232.412,281.960 234.324 C 282.598 236.236,283.244 238.393,283.396 239.118 L 283.672 240.436 280.759 240.318 L 277.847 240.200 276.993 238.000 C 276.524 236.790,275.710 234.684,275.185 233.319 C 274.659 231.954,274.159 230.907,274.074 230.992 C 273.869 231.198,277.142 239.648,277.678 240.294 C 277.947 240.618,279.157 240.800,281.049 240.800 C 284.613 240.800,284.546 241.057,282.586 234.866 C 281.377 231.049,280.800 229.678,280.800 230.624 M232.093 234.800 C 232.093 235.570,232.175 235.885,232.276 235.500 C 232.376 235.115,232.376 234.485,232.276 234.100 C 232.175 233.715,232.093 234.030,232.093 234.800 M310.000 234.775 L 315.000 235.000 315.000 237.600 L 315.000 240.200 309.200 240.417 L 303.400 240.634 309.292 240.717 C 316.056 240.812,315.763 240.997,315.524 236.779 L 315.400 234.600 310.200 234.575 L 305.000 234.549 310.000 234.775 M371.907 235.090 C 372.626 235.179,373.706 235.177,374.307 235.086 C 374.908 234.995,374.320 234.922,373.000 234.924 C 371.680 234.926,371.188 235.001,371.907 235.090 M377.200 240.481 C 376.430 240.706,374.090 240.804,372.000 240.699 C 369.084 240.552,368.572 240.595,369.800 240.884 C 371.822 241.359,377.542 241.103,378.600 240.489 C 379.561 239.931,379.092 239.928,377.200 240.481 M298.900 240.691 C 299.725 240.778,301.075 240.778,301.900 240.691 C 302.725 240.605,302.050 240.534,300.400 240.534 C 298.750 240.534,298.075 240.605,298.900 240.691 " stroke="none" fill="#eca180" fill-rule="evenodd"></path><path id="path6" d="M108.882 116.296 C 110.358 116.373,112.878 116.373,114.482 116.297 C 116.087 116.221,114.880 116.158,111.800 116.158 C 108.720 116.157,107.407 116.219,108.882 116.296 M103.100 116.682 C 103.595 116.778,104.405 116.778,104.900 116.682 C 105.395 116.587,104.990 116.509,104.000 116.509 C 103.010 116.509,102.605 116.587,103.100 116.682 M118.300 116.682 C 118.795 116.778,119.605 116.778,120.100 116.682 C 120.595 116.587,120.190 116.509,119.200 116.509 C 118.210 116.509,117.805 116.587,118.300 116.682 M97.000 117.220 C 96.211 117.435,96.622 117.470,98.200 117.323 C 99.520 117.200,100.675 117.032,100.767 116.950 C 101.064 116.682,98.234 116.885,97.000 117.220 M124.000 117.220 C 126.414 117.650,128.306 117.613,126.200 117.177 C 125.320 116.995,124.060 116.858,123.400 116.873 C 122.500 116.893,122.650 116.980,124.000 117.220 M90.600 118.387 C 86.901 119.340,88.118 119.359,92.200 118.412 C 93.960 118.004,94.950 117.669,94.400 117.667 C 93.850 117.666,92.140 117.990,90.600 118.387 M128.033 117.749 C 128.125 117.831,129.100 118.001,130.200 118.128 C 131.549 118.284,131.874 118.249,131.200 118.020 C 130.201 117.680,127.718 117.468,128.033 117.749 M133.200 118.800 C 133.750 118.976,134.560 119.126,135.000 119.132 L 135.800 119.144 135.000 118.800 C 134.560 118.611,133.750 118.462,133.200 118.468 L 132.200 118.480 133.200 118.800 M83.000 120.400 C 82.496 120.617,82.422 120.744,82.800 120.744 C 83.130 120.744,83.760 120.589,84.200 120.400 C 84.704 120.183,84.778 120.056,84.400 120.056 C 84.070 120.056,83.440 120.211,83.000 120.400 M138.833 120.144 C 138.925 120.223,139.540 120.408,140.200 120.556 C 141.076 120.752,141.238 120.715,140.800 120.418 C 140.260 120.053,138.432 119.798,138.833 120.144 M142.035 120.938 C 142.362 121.307,148.099 123.234,148.293 123.040 C 148.380 122.953,147.225 122.477,145.726 121.983 C 144.226 121.488,142.730 120.991,142.400 120.878 C 142.070 120.765,141.906 120.792,142.035 120.938 M76.523 122.545 C 73.391 123.865,73.460 124.168,76.622 122.978 C 78.150 122.403,79.475 121.857,79.567 121.766 C 79.988 121.346,78.408 121.751,76.523 122.545 M67.200 126.729 C 48.788 136.020,34.892 148.900,24.359 166.435 C -1.082 208.793,8.962 264.637,47.677 296.090 C 53.775 301.045,67.600 309.742,67.600 308.624 C 67.600 308.506,66.378 307.794,64.883 307.042 C 45.245 297.152,27.677 278.170,19.027 257.492 C -2.823 205.265,20.776 146.894,72.800 124.485 C 73.350 124.248,73.530 124.043,73.200 124.029 C 72.870 124.015,70.170 125.230,67.200 126.729 M160.392 128.590 C 163.578 130.218,166.252 131.481,166.335 131.399 C 166.507 131.226,155.371 125.592,154.905 125.616 C 154.737 125.624,157.206 126.963,160.392 128.590 M210.012 188.039 C 210.005 188.171,210.450 190.312,210.999 192.797 C 223.079 247.411,194.652 298.494,143.400 314.274 C 138.785 315.695,137.854 316.051,139.516 315.760 C 149.266 314.052,167.064 304.909,177.885 296.050 C 207.645 271.686,219.913 234.771,211.733 194.200 C 210.858 189.862,210.064 187.019,210.012 188.039 M88.713 190.295 C 89.876 190.376,91.676 190.376,92.713 190.293 C 93.751 190.211,92.800 190.145,90.600 190.146 C 88.400 190.147,87.551 190.214,88.713 190.295 M132.864 190.473 C 131.909 190.687,131.205 190.938,131.299 191.032 C 131.392 191.126,132.624 190.950,134.035 190.641 C 135.446 190.333,136.150 190.082,135.600 190.083 C 135.050 190.084,133.819 190.260,132.864 190.473 M83.600 190.800 C 82.256 191.231,83.708 191.231,85.400 190.800 C 86.478 190.526,86.498 190.494,85.600 190.487 C 85.050 190.483,84.150 190.624,83.600 190.800 M95.600 190.800 C 96.968 191.238,98.019 191.238,97.000 190.800 C 96.560 190.611,95.840 190.462,95.400 190.468 C 94.757 190.477,94.796 190.543,95.600 190.800 M137.600 190.800 C 138.968 191.238,140.019 191.238,139.000 190.800 C 138.560 190.611,137.840 190.462,137.400 190.468 C 136.757 190.477,136.796 190.543,137.600 190.800 M52.880 191.280 C 52.519 191.641,52.400 196.776,52.400 211.934 C 52.400 225.880,52.259 232.577,51.944 233.629 C 50.231 239.346,42.295 239.612,39.671 234.039 C 38.771 232.127,37.600 231.877,37.600 233.597 C 37.600 235.834,39.845 238.775,42.361 239.837 C 44.310 240.658,44.327 240.269,42.382 239.392 C 40.390 238.494,38.433 236.113,38.125 234.213 C 37.821 232.341,38.108 232.431,39.384 234.609 C 42.417 239.785,49.487 239.791,51.991 234.619 C 52.832 232.881,52.851 232.425,52.925 212.122 C 52.991 194.003,53.075 191.400,53.600 191.400 C 54.124 191.400,54.204 193.614,54.231 208.800 C 54.273 232.400,53.949 235.479,51.079 238.824 C 50.595 239.387,50.844 239.174,51.631 238.350 C 54.543 235.303,54.567 235.103,54.711 212.036 C 54.815 195.483,54.739 191.408,54.320 191.142 C 53.623 190.700,53.443 190.717,52.880 191.280 M156.744 190.872 C 156.564 191.281,156.491 238.971,156.669 239.436 C 157.063 240.461,157.442 240.022,157.305 238.700 C 156.724 233.098,157.051 191.200,157.675 191.200 C 158.056 191.200,158.345 191.505,158.339 191.900 C 158.332 192.285,158.350 197.775,158.379 204.100 L 158.431 215.600 169.616 215.600 L 180.800 215.600 180.800 203.624 C 180.800 192.410,180.972 190.439,181.873 191.340 C 182.139 191.605,182.339 237.337,182.081 238.900 C 181.208 244.196,180.203 229.254,180.689 218.200 C 180.732 217.221,159.349 217.137,158.715 218.113 C 158.542 218.381,158.411 223.234,158.424 228.898 C 158.438 234.562,158.338 239.377,158.201 239.598 C 158.065 239.819,158.143 240.000,158.376 240.000 C 158.926 240.000,158.896 240.561,158.952 229.000 C 158.978 223.500,159.146 218.775,159.324 218.500 C 159.568 218.122,162.084 218.000,169.636 218.000 C 177.276 218.000,179.662 218.118,179.784 218.500 C 179.951 219.024,180.378 232.101,180.392 237.113 C 180.401 240.285,181.134 241.326,182.267 239.776 C 183.023 238.742,182.878 191.918,182.117 191.157 C 180.641 189.682,180.416 191.194,180.306 203.344 L 180.200 215.000 169.600 215.000 L 159.000 215.000 159.101 205.400 C 159.224 193.645,158.974 191.053,157.700 190.872 C 157.205 190.802,156.775 190.802,156.744 190.872 M128.081 193.100 C 123.593 197.633,123.673 203.875,128.272 208.009 C 130.050 209.607,134.400 212.343,134.400 211.863 C 134.400 211.760,133.423 211.125,132.228 210.451 C 124.299 205.976,122.763 196.812,129.226 192.535 C 130.867 191.449,131.083 191.200,130.381 191.200 C 130.150 191.200,129.115 192.055,128.081 193.100 M141.257 192.352 C 142.058 193.031,143.087 194.220,143.543 194.993 C 144.785 197.098,143.456 196.904,140.738 194.584 C 138.600 192.759,137.277 192.144,136.317 192.529 C 136.033 192.643,136.281 192.751,136.869 192.768 C 137.856 192.798,139.026 193.582,141.541 195.900 C 142.471 196.758,143.980 197.087,144.517 196.549 C 145.166 195.900,142.497 192.474,140.600 191.519 C 140.160 191.298,140.455 191.673,141.257 192.352 M78.100 192.600 C 76.945 193.125,76.000 193.645,76.000 193.755 C 76.000 193.948,80.423 192.099,80.767 191.763 C 81.175 191.363,80.032 191.722,78.100 192.600 M100.400 192.134 C 100.400 192.218,101.435 192.926,102.700 193.707 C 117.727 202.991,117.826 229.306,102.863 236.974 C 102.127 237.351,101.617 237.751,101.730 237.863 C 102.096 238.229,106.155 235.341,108.076 233.347 C 117.908 223.144,116.699 204.906,105.561 195.417 C 103.528 193.685,100.400 191.695,100.400 192.134 M87.700 192.694 C 88.745 192.776,90.455 192.776,91.500 192.694 C 92.545 192.612,91.690 192.544,89.600 192.544 C 87.510 192.544,86.655 192.612,87.700 192.694 M81.200 193.737 C 67.764 198.490,62.264 212.926,68.756 226.397 C 70.355 229.716,74.387 234.204,76.800 235.352 C 78.157 235.997,78.169 235.996,77.200 235.313 C 60.599 223.600,63.982 198.986,82.938 193.562 C 84.292 193.174,85.040 192.848,84.600 192.837 C 84.160 192.826,82.630 193.231,81.200 193.737 M95.552 193.431 C 96.736 193.750,98.581 194.451,99.652 194.989 C 100.723 195.527,101.600 195.807,101.600 195.613 C 101.600 195.138,95.468 192.793,94.313 192.826 C 93.811 192.841,94.368 193.113,95.552 193.431 M131.391 193.179 C 129.756 193.842,127.258 196.879,126.954 198.572 C 126.019 203.791,127.941 206.266,136.200 210.474 C 145.096 215.008,147.391 217.182,149.167 222.760 C 150.850 228.045,147.806 235.170,142.549 238.251 C 141.567 238.826,140.854 239.387,140.963 239.497 C 142.004 240.537,148.343 233.962,149.423 230.722 C 152.195 222.412,148.444 216.437,136.620 210.324 C 133.551 208.738,130.396 206.796,129.610 206.010 C 125.727 202.127,126.776 196.113,131.800 193.465 C 133.055 192.803,132.785 192.614,131.391 193.179 M73.760 195.154 C 62.660 203.361,60.864 219.964,69.796 231.800 C 72.188 234.970,78.347 239.565,80.200 239.561 C 80.420 239.561,79.430 238.956,78.000 238.216 C 61.823 229.853,59.978 204.767,74.800 194.720 C 75.350 194.347,75.692 194.033,75.560 194.021 C 75.428 194.009,74.618 194.519,73.760 195.154 M103.000 196.844 C 115.771 206.298,115.311 226.938,102.157 234.646 C 100.214 235.785,99.758 236.353,101.517 235.443 C 115.725 228.096,116.545 203.173,102.800 196.445 C 101.997 196.052,102.037 196.131,103.000 196.844 M139.824 214.624 C 149.927 220.680,150.302 231.280,140.608 236.841 C 138.354 238.134,138.431 238.413,140.716 237.235 C 148.426 233.260,150.596 222.776,144.739 217.800 C 142.595 215.979,140.524 214.471,139.320 213.855 C 137.074 212.706,137.365 213.151,139.824 214.624 M121.480 228.653 C 120.352 229.782,122.772 234.782,125.739 237.449 C 127.552 239.079,130.293 240.640,130.674 240.259 C 130.758 240.176,130.235 239.869,129.513 239.578 C 126.224 238.252,122.420 233.681,121.790 230.300 C 121.353 227.952,122.415 228.405,123.693 231.111 C 125.358 234.639,129.518 238.428,131.684 238.391 C 131.968 238.386,131.455 238.044,130.545 237.631 C 127.959 236.457,125.621 234.076,124.234 231.208 C 123.070 228.799,122.170 227.963,121.480 228.653 M108.031 231.092 C 107.534 232.182,107.535 232.183,108.367 231.430 C 109.226 230.652,109.453 230.000,108.864 230.000 C 108.680 230.000,108.304 230.492,108.031 231.092 M101.776 236.187 C 100.766 236.951,101.204 236.959,102.654 236.202 C 103.284 235.874,103.519 235.604,103.176 235.602 C 102.834 235.601,102.204 235.864,101.776 236.187 M98.000 236.800 C 97.010 237.215,96.403 237.565,96.651 237.578 C 97.218 237.606,100.000 236.457,100.000 236.195 C 100.000 235.948,100.112 235.914,98.000 236.800 M80.808 237.339 C 81.363 237.664,82.533 238.033,83.408 238.160 L 85.000 238.391 83.200 237.843 C 82.210 237.541,81.040 237.172,80.600 237.022 C 80.102 236.852,80.180 236.972,80.808 237.339 M93.800 238.000 C 92.711 238.277,92.693 238.307,93.600 238.325 C 94.150 238.335,94.960 238.189,95.400 238.000 C 96.386 237.576,95.466 237.576,93.800 238.000 M99.000 238.829 C 98.120 239.252,97.850 239.486,98.400 239.349 C 99.533 239.067,101.612 238.025,101.000 238.046 C 100.780 238.053,99.880 238.406,99.000 238.829 M134.800 238.400 L 132.200 238.662 134.600 238.703 C 135.920 238.725,137.360 238.589,137.800 238.400 C 138.683 238.021,138.567 238.021,134.800 238.400 M86.900 238.694 C 87.945 238.776,89.655 238.776,90.700 238.694 C 91.745 238.612,90.890 238.544,88.800 238.544 C 86.710 238.544,85.855 238.612,86.900 238.694 M95.000 240.000 C 93.911 240.277,93.893 240.307,94.800 240.325 C 95.350 240.335,96.160 240.189,96.600 240.000 C 97.586 239.576,96.666 239.576,95.000 240.000 M46.600 240.400 L 44.200 240.666 46.400 240.727 C 47.610 240.760,48.870 240.613,49.200 240.400 C 49.530 240.187,49.620 240.040,49.400 240.073 C 49.180 240.107,47.920 240.254,46.600 240.400 M84.305 240.683 C 84.802 240.779,85.522 240.775,85.905 240.675 C 86.287 240.575,85.880 240.496,85.000 240.501 C 84.120 240.505,83.807 240.587,84.305 240.683 M91.700 240.676 C 92.085 240.776,92.715 240.776,93.100 240.676 C 93.485 240.575,93.170 240.493,92.400 240.493 C 91.630 240.493,91.315 240.575,91.700 240.676 M131.905 240.683 C 132.402 240.779,133.122 240.775,133.505 240.675 C 133.887 240.575,133.480 240.496,132.600 240.501 C 131.720 240.505,131.407 240.587,131.905 240.683 M135.905 240.683 C 136.402 240.779,137.122 240.775,137.505 240.675 C 137.887 240.575,137.480 240.496,136.600 240.501 C 135.720 240.505,135.407 240.587,135.905 240.683 M87.705 241.087 C 88.314 241.179,89.214 241.177,89.705 241.082 C 90.197 240.987,89.700 240.911,88.600 240.914 C 87.500 240.917,87.097 240.995,87.705 241.087 M68.600 309.263 C 69.658 309.954,74.510 312.024,74.678 311.855 C 74.751 311.783,73.503 311.139,71.905 310.425 C 68.452 308.882,67.513 308.552,68.600 309.263 M78.200 313.355 C 78.860 313.655,79.850 314.011,80.400 314.146 C 81.203 314.343,81.164 314.284,80.200 313.845 C 79.540 313.545,78.550 313.189,78.000 313.054 C 77.197 312.857,77.236 312.916,78.200 313.355 M83.600 315.182 C 83.930 315.405,84.545 315.591,84.967 315.594 C 85.990 315.602,85.671 315.373,84.200 315.044 C 83.324 314.848,83.162 314.885,83.600 315.182 M88.000 316.400 C 89.368 316.838,90.419 316.838,89.400 316.400 C 88.960 316.211,88.240 316.062,87.800 316.068 C 87.157 316.077,87.196 316.143,88.000 316.400 M136.000 316.400 C 135.196 316.657,135.157 316.723,135.800 316.732 C 136.240 316.738,136.960 316.589,137.400 316.400 C 138.419 315.962,137.368 315.962,136.000 316.400 M93.200 317.600 C 93.750 317.776,94.650 317.917,95.200 317.913 C 96.098 317.906,96.078 317.874,95.000 317.600 C 93.308 317.169,91.856 317.169,93.200 317.600 M125.200 318.400 L 123.000 318.670 125.000 318.695 C 126.100 318.709,127.450 318.576,128.000 318.400 C 129.228 318.007,128.409 318.007,125.200 318.400 M99.705 318.687 C 100.314 318.779,101.214 318.777,101.705 318.682 C 102.197 318.587,101.700 318.511,100.600 318.514 C 99.500 318.517,99.097 318.595,99.705 318.687 M103.705 319.087 C 104.314 319.179,105.214 319.177,105.705 319.082 C 106.197 318.987,105.700 318.911,104.600 318.914 C 103.500 318.917,103.097 318.995,103.705 319.087 M119.500 319.082 C 119.995 319.178,120.805 319.178,121.300 319.082 C 121.795 318.987,121.390 318.909,120.400 318.909 C 119.410 318.909,119.005 318.987,119.500 319.082 M110.316 319.497 C 111.699 319.575,113.859 319.574,115.116 319.495 C 116.372 319.416,115.240 319.352,112.600 319.353 C 109.960 319.353,108.932 319.418,110.316 319.497 " stroke="none" fill="#cce9f9" fill-rule="evenodd"></path><path id="path7" d="M166.299 134.896 C 167.388 160.016,180.583 177.726,204.200 185.763 C 205.960 186.362,207.805 187.051,208.299 187.293 C 209.421 187.844,209.961 187.421,208.877 186.841 C 208.442 186.608,206.131 185.720,203.743 184.867 C 181.477 176.915,168.463 159.922,167.263 137.232 C 167.113 134.404,166.822 132.206,166.587 132.128 C 166.320 132.040,166.218 133.023,166.299 134.896 " stroke="none" fill="#707c84" fill-rule="evenodd"></path><path id="path8" d="M212.400 81.995 C 211.630 82.154,212.890 82.195,215.200 82.086 C 217.510 81.978,219.475 81.824,219.567 81.745 C 219.864 81.487,213.842 81.697,212.400 81.995 M221.900 81.893 C 222.835 81.977,224.365 81.977,225.300 81.893 C 226.235 81.809,225.470 81.740,223.600 81.740 C 221.730 81.740,220.965 81.809,221.900 81.893 M232.400 83.162 C 234.050 83.585,235.462 83.870,235.538 83.795 C 235.741 83.592,232.838 82.823,231.000 82.592 C 230.120 82.482,230.750 82.738,232.400 83.162 M238.400 84.862 C 244.524 87.718,246.800 88.717,246.800 88.549 C 246.800 88.274,239.637 84.940,238.400 84.639 L 237.400 84.396 238.400 84.862 M194.836 87.808 C 181.005 95.086,171.219 107.853,167.619 123.315 C 167.168 125.249,166.815 127.319,166.834 127.915 C 166.852 128.512,167.194 127.372,167.592 125.382 C 170.907 108.844,180.755 95.576,195.400 87.919 C 197.820 86.654,199.620 85.618,199.400 85.618 C 199.180 85.618,197.126 86.603,194.836 87.808 M247.400 89.072 C 247.620 89.292,248.700 90.057,249.800 90.772 C 250.900 91.487,251.440 91.723,251.000 91.296 C 250.560 90.870,249.480 90.105,248.600 89.596 C 247.720 89.088,247.180 88.852,247.400 89.072 M253.546 93.429 C 263.141 101.747,268.812 110.544,271.821 121.780 C 272.354 123.771,272.681 124.590,272.547 123.600 C 271.242 113.957,261.306 98.157,253.200 92.835 C 252.016 92.057,252.069 92.149,253.546 93.429 M214.847 97.612 C 211.562 99.992,210.009 104.800,212.525 104.800 C 212.761 104.800,212.627 104.562,212.229 104.271 C 210.717 103.165,212.514 99.471,215.477 97.592 C 216.511 96.936,217.168 96.400,216.938 96.400 C 216.708 96.400,215.767 96.945,214.847 97.612 M229.233 96.558 C 229.573 96.880,232.400 97.952,232.400 97.759 C 232.400 97.649,231.776 97.298,231.013 96.980 C 229.669 96.418,228.891 96.234,229.233 96.558 M233.921 99.138 C 235.765 100.890,236.870 103.645,237.232 107.396 L 237.542 110.600 237.440 107.345 C 237.318 103.472,235.944 100.159,233.875 98.751 L 232.600 97.883 233.921 99.138 M216.100 105.476 C 216.485 105.576,217.115 105.576,217.500 105.476 C 217.885 105.375,217.570 105.293,216.800 105.293 C 216.030 105.293,215.715 105.375,216.100 105.476 M219.800 105.802 C 220.656 106.098,226.949 106.261,226.198 105.968 C 225.759 105.796,224.050 105.658,222.400 105.660 C 220.750 105.662,219.580 105.725,219.800 105.802 M228.321 107.900 C 228.106 108.685,227.802 108.804,225.937 108.830 C 223.061 108.870,219.461 109.474,221.650 109.550 C 222.447 109.577,223.707 109.693,224.450 109.808 C 225.499 109.969,225.622 109.931,225.000 109.636 C 224.358 109.331,224.555 109.249,226.000 109.222 C 228.158 109.181,228.932 108.763,228.723 107.752 C 228.586 107.088,228.539 107.106,228.321 107.900 M211.447 107.924 C 211.337 108.102,212.361 108.179,213.723 108.095 C 217.205 107.880,217.479 107.669,214.324 107.632 C 212.852 107.614,211.557 107.746,211.447 107.924 M220.900 108.676 C 221.285 108.776,221.915 108.776,222.300 108.676 C 222.685 108.575,222.370 108.493,221.600 108.493 C 220.830 108.493,220.515 108.575,220.900 108.676 M216.905 109.087 C 217.514 109.179,218.414 109.177,218.905 109.082 C 219.397 108.987,218.900 108.911,217.800 108.914 C 216.700 108.917,216.297 108.995,216.905 109.087 M226.700 110.412 C 227.674 110.804,227.908 111.809,227.100 112.135 C 226.786 112.262,226.768 112.349,227.051 112.368 C 227.299 112.386,227.710 112.149,227.965 111.842 C 228.523 111.170,227.548 109.985,226.471 110.025 C 225.991 110.043,226.056 110.154,226.700 110.412 M210.522 111.057 C 209.845 111.333,210.353 112.406,211.143 112.368 C 211.558 112.348,211.616 112.262,211.300 112.135 C 210.580 111.845,210.685 111.289,211.500 111.076 C 211.971 110.953,212.003 110.888,211.600 110.878 C 211.270 110.870,210.785 110.951,210.522 111.057 M214.100 111.076 C 214.485 111.176,215.115 111.176,215.500 111.076 C 215.885 110.975,215.570 110.893,214.800 110.893 C 214.030 110.893,213.715 110.975,214.100 111.076 M236.500 113.976 C 236.230 115.828,236.079 117.412,236.164 117.497 C 236.406 117.739,237.283 112.124,237.128 111.323 C 237.053 110.930,236.770 112.124,236.500 113.976 M213.700 112.687 C 214.305 112.778,215.295 112.778,215.900 112.687 C 216.505 112.595,216.010 112.520,214.800 112.520 C 213.590 112.520,213.095 112.595,213.700 112.687 M221.400 112.800 L 218.600 113.059 221.400 113.089 C 222.940 113.106,224.650 112.976,225.200 112.800 L 226.200 112.480 225.200 112.511 C 224.650 112.527,222.940 112.658,221.400 112.800 M225.578 113.641 C 226.117 113.856,226.792 114.227,227.078 114.465 C 227.379 114.715,227.600 114.735,227.600 114.513 C 227.600 114.087,225.837 113.186,225.081 113.225 C 224.817 113.239,225.040 113.427,225.578 113.641 M218.200 115.988 L 215.800 116.266 219.074 116.333 C 220.875 116.370,222.822 116.580,223.402 116.801 C 223.981 117.021,224.938 117.073,225.528 116.916 C 226.685 116.607,226.685 116.607,222.000 115.918 C 221.230 115.804,219.520 115.836,218.200 115.988 M225.958 117.529 C 226.265 117.744,226.406 118.207,226.271 118.560 C 226.136 118.912,226.212 119.200,226.440 119.200 C 227.078 119.200,226.680 117.484,226.000 117.301 C 225.501 117.166,225.494 117.204,225.958 117.529 M208.489 118.964 C 208.247 119.495,207.950 120.620,207.829 121.464 C 207.642 122.768,207.696 122.699,208.186 121.008 C 208.504 119.912,209.077 118.787,209.459 118.508 C 210.033 118.088,210.047 118.000,209.541 118.000 C 209.204 118.000,208.731 118.434,208.489 118.964 M211.705 118.287 C 212.314 118.379,213.214 118.377,213.705 118.282 C 214.197 118.187,213.700 118.111,212.600 118.114 C 211.500 118.117,211.097 118.195,211.705 118.287 M235.599 118.233 C 235.599 118.435,235.328 120.130,234.996 122.000 C 234.665 123.870,234.115 127.290,233.774 129.600 C 233.433 131.910,232.902 134.782,232.594 135.983 C 231.956 138.466,232.113 139.284,232.777 136.938 C 233.420 134.666,236.045 118.312,235.806 118.072 C 235.693 117.959,235.600 118.032,235.599 118.233 M220.705 119.483 C 221.202 119.579,221.922 119.575,222.305 119.475 C 222.687 119.375,222.280 119.296,221.400 119.301 C 220.520 119.305,220.207 119.387,220.705 119.483 M206.851 126.201 C 205.624 134.448,207.014 142.000,209.759 142.000 C 209.989 142.000,209.763 141.709,209.255 141.353 C 206.950 139.739,206.118 133.550,207.236 126.346 C 207.475 124.801,207.588 123.455,207.487 123.353 C 207.385 123.252,207.099 124.533,206.851 126.201 M272.995 134.040 C 272.984 152.733,264.940 169.069,251.130 178.447 C 249.849 179.318,248.800 180.120,248.800 180.230 C 248.800 180.785,254.189 176.686,256.950 174.030 C 269.107 162.338,276.158 142.068,273.297 127.040 C 273.128 126.151,272.998 129.161,272.995 134.040 M166.493 130.400 C 166.493 131.170,166.575 131.485,166.676 131.100 C 166.776 130.715,166.776 130.085,166.676 129.700 C 166.575 129.315,166.493 129.630,166.493 130.400 M221.744 136.672 C 221.778 137.073,221.395 137.461,220.800 137.632 C 220.226 137.798,220.084 137.937,220.467 137.960 C 221.619 138.029,222.400 137.543,222.400 136.757 C 222.400 136.341,222.240 136.000,222.044 136.000 C 221.849 136.000,221.714 136.303,221.744 136.672 M213.228 139.200 C 211.694 140.740,210.596 142.000,210.788 142.000 C 210.980 142.000,211.788 141.235,212.582 140.300 C 213.377 139.365,214.683 138.105,215.485 137.500 C 216.286 136.895,216.734 136.400,216.479 136.400 C 216.225 136.400,214.761 137.660,213.228 139.200 M216.087 139.100 C 215.468 139.705,215.352 139.876,215.828 139.479 C 216.305 139.083,217.214 138.604,217.848 138.414 C 218.821 138.122,218.861 138.063,218.106 138.034 C 217.615 138.015,216.706 138.495,216.087 139.100 M230.976 140.063 C 230.600 140.798,229.617 142.139,228.792 143.042 C 227.966 143.945,227.157 145.115,226.993 145.642 C 226.829 146.169,226.359 147.078,225.948 147.662 C 225.536 148.246,225.201 148.876,225.203 149.062 C 225.207 149.580,226.759 147.175,227.437 145.600 C 227.768 144.830,228.628 143.570,229.348 142.800 C 230.891 141.150,232.148 139.214,231.861 138.928 C 231.750 138.817,231.352 139.327,230.976 140.063 M214.011 141.771 C 213.434 143.290,213.499 144.817,214.228 146.850 C 214.574 147.812,215.004 149.320,215.184 150.200 C 215.423 151.362,215.524 151.516,215.556 150.763 C 215.580 150.192,215.240 148.679,214.800 147.400 C 213.904 144.794,213.792 143.136,214.432 141.939 C 214.670 141.495,214.765 141.032,214.644 140.910 C 214.522 140.789,214.237 141.176,214.011 141.771 M223.696 150.100 C 222.167 151.733,222.000 152.953,221.997 162.526 C 221.995 167.627,221.880 172.738,221.743 173.884 L 221.492 175.968 218.446 176.113 L 215.400 176.258 218.600 176.229 L 221.800 176.200 222.070 174.400 C 222.219 173.410,222.354 168.247,222.370 162.926 C 222.401 152.955,222.565 151.735,224.096 150.100 C 224.560 149.605,224.849 149.200,224.739 149.200 C 224.629 149.200,224.160 149.605,223.696 150.100 M215.777 163.800 C 215.777 170.400,215.832 173.156,215.899 169.925 C 215.966 166.693,215.966 161.293,215.899 157.925 C 215.832 154.556,215.777 157.200,215.777 163.800 M245.200 182.000 C 243.990 182.639,243.141 183.171,243.313 183.181 C 243.738 183.207,247.600 181.236,247.600 180.993 C 247.600 180.726,247.655 180.703,245.200 182.000 M232.800 186.217 C 231.590 186.519,229.970 186.801,229.200 186.843 C 227.968 186.911,227.933 186.940,228.902 187.087 C 229.935 187.243,236.000 186.109,236.000 185.760 C 236.000 185.507,235.167 185.626,232.800 186.217 M225.505 187.483 C 226.002 187.579,226.722 187.575,227.105 187.475 C 227.487 187.375,227.080 187.296,226.200 187.301 C 225.320 187.305,225.007 187.387,225.505 187.483 M215.700 187.897 C 217.185 187.974,219.615 187.974,221.100 187.897 C 222.585 187.820,221.370 187.757,218.400 187.757 C 215.430 187.757,214.215 187.820,215.700 187.897 M225.100 190.693 C 226.035 190.777,227.565 190.777,228.500 190.693 C 229.435 190.609,228.670 190.540,226.800 190.540 C 224.930 190.540,224.165 190.609,225.100 190.693 M290.800 190.792 C 290.066 191.255,290.155 240.196,290.891 241.100 C 291.522 241.876,314.922 241.817,315.569 241.038 C 315.861 240.685,315.991 239.307,315.918 237.338 L 315.800 234.200 314.297 234.158 L 312.793 234.116 314.197 234.282 L 315.600 234.448 315.600 237.617 C 315.600 241.564,316.771 241.254,302.400 241.112 L 291.000 241.000 290.800 216.400 C 290.596 191.321,290.614 190.973,292.129 190.678 C 292.913 190.526,292.920 190.504,292.200 190.461 C 291.760 190.434,291.130 190.583,290.800 190.792 M344.905 190.687 C 345.514 190.779,346.414 190.777,346.905 190.682 C 347.397 190.587,346.900 190.511,345.800 190.514 C 344.700 190.517,344.297 190.595,344.905 190.687 M376.800 190.686 C 377.130 190.809,377.895 191.160,378.500 191.465 C 379.105 191.771,379.600 191.931,379.600 191.821 C 379.600 191.507,377.298 190.396,376.720 190.432 C 376.371 190.453,376.397 190.536,376.800 190.686 M213.368 191.340 C 212.903 192.550,213.391 197.333,214.000 197.533 C 214.462 197.685,214.501 197.600,214.169 197.165 C 213.576 196.387,213.480 192.027,214.041 191.351 C 214.384 190.937,214.383 190.800,214.036 190.800 C 213.783 190.800,213.482 191.043,213.368 191.340 M243.519 191.141 C 243.887 191.375,244.003 192.334,243.919 194.435 L 243.800 197.400 238.800 197.625 L 233.800 197.851 239.000 197.825 L 244.200 197.800 244.422 194.800 C 244.637 191.880,244.373 190.794,243.451 190.806 C 243.169 190.810,243.195 190.936,243.519 191.141 M261.989 191.621 C 261.748 192.072,260.207 196.167,258.565 200.721 C 256.924 205.274,255.331 209.630,255.025 210.400 C 254.167 212.559,249.310 226.074,248.987 227.200 C 248.040 230.505,249.858 225.759,255.578 210.000 C 259.823 198.303,262.321 191.960,262.863 191.500 C 263.517 190.945,263.558 190.800,263.058 190.800 C 262.712 190.800,262.231 191.169,261.989 191.621 M266.541 191.700 C 267.083 192.195,267.835 193.590,268.212 194.800 C 269.455 198.793,273.694 210.040,273.884 209.850 C 273.986 209.747,273.421 208.021,272.627 206.014 C 271.834 204.007,270.373 199.988,269.382 197.083 C 267.752 192.306,266.917 190.800,265.901 190.800 C 265.711 190.800,265.999 191.205,266.541 191.700 M297.352 191.315 C 297.755 191.610,298.018 192.252,297.966 192.815 C 297.916 193.357,297.904 202.845,297.938 213.900 L 298.000 234.000 302.700 233.914 L 307.400 233.829 302.900 233.701 L 298.400 233.574 298.400 212.820 C 298.400 191.523,298.363 190.800,297.281 190.800 C 296.739 190.800,296.750 190.875,297.352 191.315 M322.612 191.181 C 322.148 191.931,322.385 240.500,322.855 241.066 C 323.425 241.753,328.444 241.796,329.120 241.120 C 329.432 240.808,329.573 239.440,329.524 237.220 L 329.449 233.800 329.224 237.400 L 329.000 241.000 326.821 241.124 C 325.623 241.192,324.228 241.143,323.721 241.016 L 322.800 240.785 322.800 216.020 L 322.800 191.256 323.700 191.082 C 324.600 190.909,324.600 190.909,323.724 190.854 C 323.242 190.825,322.741 190.971,322.612 191.181 M329.090 191.087 C 329.433 191.331,329.612 193.370,329.690 197.918 C 329.756 201.814,329.960 204.441,330.200 204.501 C 330.420 204.555,332.689 201.812,335.242 198.405 C 337.796 194.998,340.406 191.894,341.042 191.507 C 341.679 191.121,342.048 190.803,341.862 190.802 C 341.063 190.797,339.290 192.185,338.382 193.526 C 336.370 196.496,330.754 203.800,330.482 203.800 C 330.327 203.800,330.110 200.935,330.000 197.433 C 329.837 192.229,329.690 191.035,329.200 190.902 C 328.766 190.784,328.736 190.836,329.090 191.087 M348.592 191.186 C 349.134 192.064,347.416 194.557,339.232 204.768 C 333.992 211.307,333.983 211.435,338.334 217.877 C 347.829 231.934,349.989 235.210,350.775 236.750 C 351.259 237.700,351.742 238.391,351.847 238.286 C 352.148 237.985,349.122 233.151,342.330 223.089 C 338.882 217.980,335.845 213.320,335.582 212.734 C 334.875 211.162,336.264 208.911,343.334 200.169 C 348.019 194.375,350.096 190.800,348.776 190.800 C 348.543 190.800,348.460 190.974,348.592 191.186 M366.200 191.935 C 361.439 194.838,359.226 201.570,361.444 206.400 C 363.000 209.790,369.286 215.302,371.456 215.181 C 371.645 215.170,370.735 214.612,369.434 213.941 C 359.447 208.789,358.154 196.992,367.000 191.724 C 367.440 191.461,367.710 191.237,367.600 191.225 C 367.490 191.213,366.860 191.532,366.200 191.935 M381.417 193.600 C 384.626 197.235,385.014 199.393,382.713 200.796 C 380.566 202.105,378.639 201.881,377.600 200.200 C 376.637 198.642,375.339 197.591,374.411 197.618 C 374.075 197.628,374.311 197.854,374.935 198.121 C 375.559 198.388,376.556 199.324,377.151 200.203 C 378.518 202.221,380.499 202.522,383.000 201.093 C 385.537 199.643,384.867 196.436,381.350 193.200 L 379.828 191.800 381.417 193.600 M218.800 197.883 C 221.110 197.946,223.382 198.086,223.849 198.194 C 224.696 198.389,224.698 198.430,224.991 219.495 C 225.323 243.359,225.006 241.600,228.969 241.600 C 233.121 241.600,232.797 243.245,232.821 222.020 C 232.832 211.779,232.976 202.185,233.141 200.700 C 233.306 199.215,233.324 198.000,233.179 198.000 C 232.620 198.000,232.400 204.824,232.400 222.211 C 232.400 242.921,232.731 241.302,228.536 241.119 L 225.800 241.000 225.454 219.600 C 225.208 204.431,224.975 198.114,224.654 197.906 C 224.404 197.744,222.040 197.647,219.400 197.690 L 214.600 197.769 218.800 197.883 M369.870 198.790 C 367.278 201.870,367.698 204.390,371.200 206.788 C 372.351 207.576,372.262 207.426,370.700 205.945 C 368.078 203.460,368.159 200.135,370.887 198.224 C 371.377 197.881,371.574 197.600,371.325 197.600 C 371.075 197.600,370.421 198.135,369.870 198.790 M263.653 208.300 C 262.045 211.461,260.808 216.400,261.624 216.400 C 261.857 216.400,261.950 216.243,261.832 216.052 C 261.271 215.145,264.049 207.336,264.774 207.784 C 264.989 207.917,265.469 209.105,265.839 210.424 C 266.209 211.743,266.593 212.740,266.693 212.640 C 266.976 212.357,265.130 206.800,264.752 206.800 C 264.568 206.800,264.073 207.475,263.653 208.300 M375.200 209.000 C 376.190 209.530,377.180 209.964,377.400 209.964 C 377.620 209.964,376.990 209.530,376.000 209.000 C 375.010 208.470,374.020 208.036,373.800 208.036 C 373.580 208.036,374.210 208.470,375.200 209.000 M378.600 210.607 C 379.040 210.966,379.760 211.435,380.200 211.651 L 381.000 212.044 380.200 211.393 C 379.760 211.034,379.040 210.565,378.600 210.349 L 377.800 209.956 378.600 210.607 M274.000 210.514 C 274.000 210.651,274.706 212.616,275.568 214.881 C 277.085 218.865,278.943 223.906,280.813 229.110 C 281.308 230.490,281.779 231.555,281.858 231.476 C 282.045 231.288,280.300 226.286,277.025 217.627 C 274.620 211.266,274.000 209.810,274.000 210.514 M383.274 214.042 C 384.524 215.229,386.099 216.992,386.774 217.960 C 387.448 218.928,388.000 219.558,388.000 219.360 C 387.999 218.653,384.477 214.529,382.754 213.218 C 381.252 212.075,381.326 212.193,383.274 214.042 M266.950 213.800 C 267.038 214.240,267.234 214.903,267.387 215.274 C 267.615 215.824,267.384 215.977,266.133 216.107 L 264.600 216.266 266.300 216.333 C 268.182 216.407,268.321 216.131,267.378 214.200 C 267.055 213.540,266.863 213.360,266.950 213.800 M375.203 217.086 C 375.205 217.259,375.655 217.608,376.204 217.863 C 376.752 218.117,377.101 218.163,376.978 217.965 C 376.652 217.437,375.199 216.718,375.203 217.086 M378.856 219.803 C 381.130 222.298,381.713 223.762,381.516 226.484 C 381.402 228.072,381.468 228.622,381.719 228.173 C 382.985 225.910,381.658 221.995,378.745 219.403 C 377.403 218.208,377.403 218.209,378.856 219.803 M329.595 225.300 C 329.592 228.875,329.481 232.205,329.348 232.700 C 329.203 233.240,329.285 233.600,329.553 233.600 C 329.865 233.600,330.000 231.487,330.000 226.600 C 330.000 222.750,330.158 219.600,330.351 219.600 C 330.881 219.600,336.434 227.822,340.550 234.700 C 342.557 238.055,344.470 240.876,344.800 240.968 C 345.926 241.284,351.801 241.681,351.551 241.424 C 351.414 241.283,349.884 241.064,348.151 240.937 C 344.427 240.663,344.446 240.675,342.539 237.262 C 338.750 230.480,330.815 218.800,329.997 218.800 C 329.751 218.800,329.598 221.268,329.595 225.300 M388.016 220.029 C 388.007 220.155,388.294 221.121,388.654 222.177 C 390.228 226.796,388.082 233.667,383.889 237.435 C 382.740 238.467,382.364 238.929,383.053 238.462 C 388.221 234.958,391.285 225.508,388.716 221.000 C 388.340 220.340,388.025 219.903,388.016 220.029 M257.451 225.900 C 256.479 227.821,253.893 235.626,254.145 235.878 C 254.220 235.954,254.949 234.003,255.765 231.544 C 256.581 229.085,257.601 226.382,258.032 225.537 C 258.464 224.691,258.726 224.000,258.615 224.000 C 258.504 224.000,257.981 224.855,257.451 225.900 M261.300 224.287 C 261.905 224.378,262.895 224.378,263.500 224.287 C 264.105 224.195,263.610 224.120,262.400 224.120 C 261.190 224.120,260.695 224.195,261.300 224.287 M266.100 224.691 C 266.925 224.778,268.275 224.778,269.100 224.691 C 269.925 224.605,269.250 224.534,267.600 224.534 C 265.950 224.534,265.275 224.605,266.100 224.691 M272.666 229.513 C 277.389 242.174,276.695 241.123,280.400 241.214 C 283.916 241.300,284.412 241.233,284.641 240.637 C 284.870 240.040,282.471 231.795,282.159 232.107 C 282.059 232.208,282.522 233.973,283.188 236.029 C 284.835 241.109,284.974 240.800,281.049 240.800 C 277.210 240.800,277.360 240.910,275.915 237.000 C 272.927 228.913,271.450 225.154,271.198 224.999 C 271.044 224.904,271.705 226.935,272.666 229.513 M357.338 226.617 C 356.257 229.434,360.052 237.152,363.366 238.876 C 363.824 239.115,363.352 238.556,362.315 237.634 C 359.703 235.312,357.855 231.494,357.823 228.358 C 357.799 225.881,357.724 225.612,357.338 226.617 M364.252 226.800 C 364.724 228.679,366.324 231.399,367.663 232.599 L 369.000 233.798 367.723 232.399 C 367.021 231.630,365.896 229.830,365.224 228.400 C 364.551 226.970,364.114 226.250,364.252 226.800 M247.480 231.289 C 244.861 238.683,244.440 240.382,245.068 241.011 C 245.748 241.691,250.407 241.838,251.570 241.216 C 252.267 240.843,254.227 236.894,253.886 236.552 C 253.792 236.459,253.403 237.199,253.022 238.198 C 252.014 240.838,251.505 241.200,248.804 241.200 C 244.505 241.200,244.539 241.336,246.996 234.012 C 247.984 231.068,248.729 228.595,248.652 228.518 C 248.575 228.441,248.048 229.688,247.480 231.289 M379.915 230.828 C 378.586 232.714,376.120 234.029,373.200 234.409 L 371.000 234.695 372.828 234.748 C 375.686 234.830,382.377 230.576,381.168 229.446 C 381.076 229.359,380.512 229.981,379.915 230.828 M352.158 240.011 C 352.181 240.664,352.335 241.199,352.500 241.199 C 352.916 241.200,352.879 239.296,352.458 239.036 C 352.270 238.920,352.135 239.359,352.158 240.011 M369.000 241.204 C 369.767 241.530,373.111 241.753,372.767 241.456 C 372.675 241.377,371.610 241.211,370.400 241.088 C 369.031 240.949,368.502 240.992,369.000 241.204 M376.200 241.200 L 374.600 241.486 376.000 241.537 C 376.770 241.565,377.670 241.413,378.000 241.200 C 378.655 240.777,378.562 240.777,376.200 241.200 " stroke="none" fill="#fcccbe" fill-rule="evenodd"></path></g></svg>